<svg width="16" height="16" viewBox="0 0 14 16" fill="none" xmlns="http://www.w3.org/2000/svg"><path fill-rule="evenodd" clip-rule="evenodd" d="M11.5696 5.48906H2.39501L6.99402 2.19613L11.5696 5.48906ZM1.01893 4.86659L6.23301 1.13327C6.68899 0.806786 7.30242 0.807529 7.75761 1.13512L12.9419 4.86614C13.2201 5.06634 13.385 5.38814 13.385 5.73088C13.385 6.31928 12.908 6.79628 12.3195 6.79628H1.63854C1.05073 6.79628 0.574219 6.31976 0.574219 5.73196C0.574219 5.38866 0.73981 5.06645 1.01893 4.86659ZM1.92272 8.94109C1.92272 8.50884 2.27311 8.15844 2.70533 8.15844C3.13755 8.15844 3.48794 8.50884 3.48794 8.94109V12.0956C3.48794 12.5278 3.13755 12.8782 2.70533 12.8782C2.27311 12.8782 1.92272 12.5278 1.92272 12.0956V8.94109ZM6.1643 8.97372C6.1643 8.52347 6.52932 8.15844 6.97959 8.15844C7.42986 8.15844 7.79488 8.52347 7.79488 8.97372V12.0629C7.79488 12.5132 7.42986 12.8782 6.97959 12.8782C6.52932 12.8782 6.1643 12.5132 6.1643 12.0629V8.97372ZM1.25879 15.5958C0.880708 15.5958 0.574219 15.2894 0.574219 14.9112C0.574219 14.5332 0.880708 14.2267 1.25879 14.2267H12.7004C13.0785 14.2267 13.385 14.5332 13.385 14.9112C13.385 15.2894 13.0785 15.5958 12.7004 15.5958H1.25879ZM10.4713 8.94109C10.4713 8.50884 10.8217 8.15844 11.2538 8.15844C11.6861 8.15844 12.0364 8.50884 12.0364 8.94109V12.0956C12.0364 12.5278 11.6861 12.8782 11.2538 12.8782C10.8217 12.8782 10.4713 12.5278 10.4713 12.0956V8.94109Z" fill="#FFF"></path></svg>