<svg width="16" height="16" viewBox="0 0 16 12" fill="none" xmlns="http://www.w3.org/2000/svg"><path fill-rule="evenodd" clip-rule="evenodd" d="M10.3588 0.292599C10.6882 0.42683 10.8465 0.80267 10.7122 1.13207L6.45596 11.5766C6.32173 11.9061 5.94589 12.0643 5.6165 11.9301C5.2871 11.7958 5.12889 11.42 5.26312 11.0906L9.51934 0.645976C9.65357 0.316581 10.0295 0.158376 10.3588 0.292599ZM11.4876 3.11686C11.2721 3.39988 11.327 3.80397 11.61 4.01941L14.4822 6.20571L11.6174 8.32224C11.3313 8.53362 11.2707 8.93691 11.4821 9.22295C11.6934 9.50909 12.0967 9.56962 12.3828 9.35824L15.3377 7.17513C15.9833 6.69815 15.9903 5.73487 15.3515 5.24864L12.3902 2.99447C12.1072 2.77904 11.7031 2.83383 11.4876 3.11686ZM4.39013 3.57496C4.67316 3.35952 4.72795 2.95543 4.51251 2.67241C4.29707 2.38939 3.89299 2.3346 3.60996 2.55003L0.648612 4.80419C0.00985824 5.29042 0.0167586 6.25371 0.662413 6.73069L3.61734 8.9138C3.90342 9.12518 4.30669 9.06464 4.51805 8.77851C4.72941 8.49246 4.66883 8.08918 4.38275 7.8778L1.51791 5.76126L4.39013 3.57496Z" fill="#FFF"></path></svg>