<svg width="12" height="12" viewBox="0 0 10 8" fill="none" xmlns="http://www.w3.org/2000/svg" data-testid="double-chevron-right"><path d="M1.21936 0.195262C0.940416 -0.0650874 0.488155 -0.0650874 0.209209 0.195262C-0.0697365 0.455612 -0.0697365 0.877722 0.209209 1.13807L3.27556 4L0.209209 6.86193C-0.0697365 7.12228 -0.0697365 7.54439 0.209209 7.80474C0.488155 8.06509 0.940416 8.06509 1.21936 7.80474L4.79079 4.4714C5.06974 4.21106 5.06974 3.78894 4.79079 3.5286L1.21936 0.195262Z" fill="#A3AFBF"></path><path d="M6.21936 0.195262C5.94042 -0.0650874 5.48816 -0.0650874 5.20921 0.195262C4.93026 0.455612 4.93026 0.877722 5.20921 1.13807L8.27556 4L5.20921 6.86193C4.93026 7.12228 4.93026 7.54439 5.20921 7.80474C5.48816 8.06509 5.94042 8.06509 6.21936 7.80474L9.79079 4.4714C10.0697 4.21106 10.0697 3.78894 9.79079 3.5286L6.21936 0.195262Z" fill="#A3AFBF"></path></svg>