<svg width="16" height="16" viewBox="0 0 14 14" fill="none" xmlns="http://www.w3.org/2000/svg"><path d="M8.40616 13C8.25762 13.0014 8.11163 12.9614 7.98456 12.8844C7.8575 12.8075 7.75439 12.6966 7.68681 12.5644L6.08826 9.53911C6.0419 9.44561 6.03395 9.33768 6.06612 9.23839C6.09829 9.1391 6.16803 9.05634 6.26042 9.0078C6.35281 8.95926 6.46052 8.94878 6.56054 8.97861C6.66055 9.00845 6.74492 9.07622 6.79562 9.16745L8.39417 12.1927L12.2147 1.83411L1.82414 5.60269L5.74058 7.70478L9.06556 4.3798C9.14081 4.30455 9.24287 4.26227 9.3493 4.26227C9.45572 4.26227 9.55779 4.30455 9.63304 4.3798C9.70829 4.45505 9.75057 4.55712 9.75057 4.66354C9.75057 4.76997 9.70829 4.87203 9.63304 4.94728L6.09625 8.48007C6.03613 8.54028 5.95835 8.57972 5.87426 8.59266C5.79016 8.6056 5.70412 8.59136 5.62868 8.55201L1.46047 6.33802C1.31457 6.26974 1.19271 6.15896 1.11086 6.02022C1.02901 5.88147 0.990998 5.72124 1.0018 5.56051C1.0126 5.39979 1.07171 5.24608 1.17139 5.11954C1.27107 4.99299 1.40665 4.89952 1.56038 4.85137L11.915 1.06281C12.0614 1.00105 12.223 0.984352 12.379 1.01486C12.535 1.04537 12.6783 1.12171 12.7907 1.2341C12.9031 1.3465 12.9795 1.48986 13.01 1.64585C13.0405 1.80185 13.0238 1.9634 12.962 2.10986L9.17346 12.4645C9.12137 12.6142 9.02593 12.7451 8.89926 12.8404C8.77259 12.9358 8.62042 12.9913 8.46211 13H8.40616Z" fill="#FFF" stroke="#FFF" stroke-width="0.3"></path></svg>