<?xml version="1.0" encoding="utf-8"?>
<!-- Generator: Adobe Illustrator 21.1.0, SVG Export Plug-In . SVG Version: 6.00 Build 0)  -->
<svg version="1.1" xmlns="http://www.w3.org/2000/svg" xmlns:xlink="http://www.w3.org/1999/xlink" x="0px" y="0px"
	 viewBox="0 0 1300 800" style="enable-background:new 0 0 1300 800;" xml:space="preserve">
<style type="text/css">
	.st0{fill:#E6E6E6;}
	.st1{fill:#333333;}
	.st2{fill:#CCCCCC;}
	.st3{fill:#FFE0B2;}
	.st4{fill:#999999;}
	.st5{fill:#E0E0E0;stroke:#333333;stroke-width:4;stroke-miterlimit:10;}
	.st6{opacity:0.24;}
	.st7{fill:#455A64;}
	.st8{fill:#E0E0E0;}
	.st9{fill:#FF5252;}
	.st10{fill:#FFCA28;}
	.st11{fill:#00C853;}
	.st12{fill:none;stroke:#7C4DFF;stroke-width:4;stroke-linecap:round;stroke-miterlimit:10;}
	.st13{fill:none;stroke:#2979FF;stroke-width:4;stroke-linecap:round;stroke-miterlimit:10;}
	.st14{fill:none;stroke:#FFAB00;stroke-width:4;stroke-linecap:round;stroke-miterlimit:10;}
	.st15{fill:none;stroke:#FF8A80;stroke-width:4;stroke-linecap:round;stroke-miterlimit:10;}
	.st16{fill:none;stroke:#FF5252;stroke-width:4;stroke-linecap:round;stroke-miterlimit:10;}
	.st17{fill:none;stroke:#536DFE;stroke-width:4;stroke-linecap:round;stroke-miterlimit:10;}
	.st18{fill:none;stroke:#448AFF;stroke-width:4;stroke-linecap:round;stroke-miterlimit:10;}
	.st19{fill:#FF7733;}
	.st20{fill:#EEEEEE;}
	.st21{opacity:0.5;}
	.st22{fill:#FFFFFF;}
	.st23{fill:#3949AB;}
	.st24{fill:#F57F17;}
	.st25{fill:#26C6DA;}
	.st26{fill:#FBC02D;}
	.st27{fill:#FF6F00;}
	.st28{fill:#FAFAFA;}
	.st29{fill:#FFA300;}
	.st30{fill:#757575;}
	.st31{opacity:0.4;}
	.st32{fill:#1A1A1A;}
	.st33{fill:#3D5AFE;}
	.st34{fill:#FF1744;}
	.st35{fill:#43A047;}
	.st36{fill:#303F9F;}
	.st37{fill:#212121;}
	.st38{fill:#00E676;}
	.st39{fill:none;stroke:#FFFFFF;stroke-width:4;stroke-miterlimit:10;}
</style>
<g id="laptop">
	<g>
		<path class="st0" d="M338.5,734.4c-7.7,0-13.9-6.2-13.9-13.9v-568c0-7.7,6.2-13.9,13.9-13.9h868c7.7,0,13.9,6.2,13.9,13.9v568
			c0,7.7-6.2,13.9-13.9,13.9H338.5z"/>
		<path class="st1" d="M1206.5,140.7c6.5,0,11.8,5.3,11.8,11.8v568c0,6.5-5.3,11.8-11.8,11.8h-868c-6.5,0-11.8-5.3-11.8-11.8v-568
			c0-6.5,5.3-11.8,11.8-11.8H1206.5 M1206.5,136.5h-868c-8.8,0-16,7.2-16,16v568c0,8.8,7.2,16,16,16h868c8.8,0,16-7.2,16-16v-568
			C1222.5,143.7,1215.3,136.5,1206.5,136.5L1206.5,136.5z"/>
	</g>
	<g>
		<path class="st2" d="M318.5,734.4c-7.7,0-13.9-6.2-13.9-13.9v-568c0-7.7,6.2-13.9,13.9-13.9h868c7.7,0,13.9,6.2,13.9,13.9v568
			c0,7.7-6.2,13.9-13.9,13.9H318.5z"/>
		<path class="st1" d="M1186.5,140.7c6.5,0,11.8,5.3,11.8,11.8v568c0,6.5-5.3,11.8-11.8,11.8h-868c-6.5,0-11.8-5.3-11.8-11.8v-568
			c0-6.5,5.3-11.8,11.8-11.8H1186.5 M1186.5,136.5h-868c-8.8,0-16,7.2-16,16v568c0,8.8,7.2,16,16,16h868c8.8,0,16-7.2,16-16v-568
			C1202.5,143.7,1195.3,136.5,1186.5,136.5L1186.5,136.5z"/>
	</g>
	<g>
		<path class="st3" d="M348.5,702.6c-7.8,0-14.1-6.3-14.1-14.1v-503c0-7.8,6.3-14.1,14.1-14.1h808c7.8,0,14.1,6.3,14.1,14.1v503
			c0,7.8-6.3,14.1-14.1,14.1H348.5z"/>
		<path class="st1" d="M1156.5,173.3c6.7,0,12.2,5.5,12.2,12.2v503c0,6.7-5.5,12.2-12.2,12.2h-808c-6.7,0-12.2-5.5-12.2-12.2v-503
			c0-6.7,5.5-12.2,12.2-12.2H1156.5 M1156.5,169.5h-808c-8.8,0-16,7.2-16,16v503c0,8.8,7.2,16,16,16h808c8.8,0,16-7.2,16-16v-503
			C1172.5,176.7,1165.3,169.5,1156.5,169.5L1156.5,169.5z"/>
	</g>
	<g>
		<path class="st4" d="M68.5,770.4c-7.7,0-13.9-6.2-13.9-13.9v-16c0-3.3,2.7-5.9,5.9-5.9h1154c3.3,0,5.9,2.7,5.9,5.9v16
			c0,7.7-6.2,13.9-13.9,13.9H68.5z"/>
		<path class="st1" d="M1214.5,736.7c2.1,0,3.8,1.7,3.8,3.8v16c0,6.5-5.3,11.8-11.8,11.8H68.5c-6.5,0-11.8-5.3-11.8-11.8v-16
			c0-2.1,1.7-3.8,3.8-3.8H1214.5 M1214.5,732.5H60.5c-4.4,0-8,3.6-8,8v16c0,8.8,7.2,16,16,16h1138c8.8,0,16-7.2,16-16v-16
			C1222.5,736.1,1218.9,732.5,1214.5,732.5L1214.5,732.5z"/>
	</g>
	<g>
		<path class="st2" d="M68.5,770.4c-7.7,0-13.9-6.2-13.9-13.9v-16c0-3.3,2.7-5.9,5.9-5.9h824c3.3,0,5.9,2.7,5.9,5.9v16
			c0,7.7-6.2,13.9-13.9,13.9H68.5z"/>
		<path class="st1" d="M884.5,736.7c2.1,0,3.8,1.7,3.8,3.8v16c0,6.5-5.3,11.8-11.8,11.8h-808c-6.5,0-11.8-5.3-11.8-11.8v-16
			c0-2.1,1.7-3.8,3.8-3.8H884.5 M884.5,732.5h-824c-4.4,0-8,3.6-8,8v16c0,8.8,7.2,16,16,16h808c8.8,0,16-7.2,16-16v-16
			C892.5,736.1,888.9,732.5,884.5,732.5L884.5,732.5z"/>
	</g>
	<g>
		<path class="st2" d="M904.5,770.4c-7.7,0-13.9-6.2-13.9-13.9v-16c0-3.3,2.7-5.9,5.9-5.9h318c3.3,0,5.9,2.7,5.9,5.9v16
			c0,7.7-6.2,13.9-13.9,13.9H904.5z"/>
		<path class="st1" d="M1214.5,736.7c2.1,0,3.8,1.7,3.8,3.8v16c0,6.5-5.3,11.8-11.8,11.8h-302c-6.5,0-11.8-5.3-11.8-11.8v-16
			c0-2.1,1.7-3.8,3.8-3.8H1214.5 M1214.5,732.5h-318c-4.4,0-8,3.6-8,8v16c0,8.8,7.2,16,16,16h302c8.8,0,16-7.2,16-16v-16
			C1222.5,736.1,1218.9,732.5,1214.5,732.5L1214.5,732.5z"/>
	</g>
	<path class="st5" d="M536.5,750.5h-128c-8.8,0-16-7.2-16-16l0,0h160l0,0C552.5,743.3,545.3,750.5,536.5,750.5z"/>
</g>
<g id="code_window">
	<g>
		<g class="st6">
			<path d="M634.5,539.5c-7.7,0-14-6.3-14-14v-275c0-7.7,6.3-14,14-14h475c7.7,0,14,6.3,14,14v275c0,7.7-6.3,14-14,14H634.5z"/>
			<path d="M1109.5,238.5c6.6,0,12,5.4,12,12v275c0,6.6-5.4,12-12,12h-475c-6.6,0-12-5.4-12-12v-275c0-6.6,5.4-12,12-12H1109.5
				 M1109.5,234.5h-475c-8.8,0-16,7.2-16,16v275c0,8.8,7.2,16,16,16h475c8.8,0,16-7.2,16-16v-275
				C1125.5,241.7,1118.3,234.5,1109.5,234.5L1109.5,234.5z"/>
		</g>
		<g>
			<path class="st7" d="M618.5,523.5c-7.7,0-14-6.3-14-14v-275c0-7.7,6.3-14,14-14h475c7.7,0,14,6.3,14,14v275c0,7.7-6.3,14-14,14
				H618.5z"/>
			<path class="st1" d="M1093.5,222.5c6.6,0,12,5.4,12,12v275c0,6.6-5.4,12-12,12h-475c-6.6,0-12-5.4-12-12v-275c0-6.6,5.4-12,12-12
				H1093.5 M1093.5,218.5h-475c-8.8,0-16,7.2-16,16v275c0,8.8,7.2,16,16,16h475c8.8,0,16-7.2,16-16v-275
				C1109.5,225.7,1102.3,218.5,1093.5,218.5L1093.5,218.5z"/>
		</g>
	</g>
	<g>
		<path class="st8" d="M604.5,256.5v-22c0-7.7,6.3-14,14-14h475c7.7,0,14,6.3,14,14v22H604.5z"/>
		<path class="st1" d="M1093.5,222.5c6.6,0,12,5.4,12,12v20h-499v-20c0-6.6,5.4-12,12-12H1093.5 M1093.5,218.5h-475
			c-8.8,0-16,7.2-16,16v24h507v-24C1109.5,225.7,1102.3,218.5,1093.5,218.5L1093.5,218.5z"/>
	</g>
	<g>
		<circle class="st9" cx="623.5" cy="238.5" r="6.1"/>
		<path class="st1" d="M623.5,234.3c2.3,0,4.2,1.9,4.2,4.2s-1.9,4.2-4.2,4.2s-4.2-1.9-4.2-4.2S621.2,234.3,623.5,234.3 M623.5,230.5
			c-4.4,0-8,3.6-8,8s3.6,8,8,8s8-3.6,8-8S627.9,230.5,623.5,230.5L623.5,230.5z"/>
	</g>
	<g>
		<circle class="st10" cx="643.5" cy="238.5" r="6.1"/>
		<path class="st1" d="M643.5,234.3c2.3,0,4.2,1.9,4.2,4.2s-1.9,4.2-4.2,4.2s-4.2-1.9-4.2-4.2S641.2,234.3,643.5,234.3 M643.5,230.5
			c-4.4,0-8,3.6-8,8s3.6,8,8,8s8-3.6,8-8S647.9,230.5,643.5,230.5L643.5,230.5z"/>
	</g>
	<g>
		<circle class="st11" cx="663.5" cy="238.5" r="6.1"/>
		<path class="st1" d="M663.5,234.3c2.3,0,4.2,1.9,4.2,4.2s-1.9,4.2-4.2,4.2s-4.2-1.9-4.2-4.2S661.2,234.3,663.5,234.3 M663.5,230.5
			c-4.4,0-8,3.6-8,8s3.6,8,8,8s8-3.6,8-8S667.9,230.5,663.5,230.5L663.5,230.5z"/>
	</g>
	<g id="code_1_">
		<line class="st12" x1="736.5" y1="319.5" x2="794.5" y2="319.5"/>
		<line class="st13" x1="816.5" y1="319.5" x2="924.5" y2="319.5"/>
		<line class="st12" x1="736.5" y1="339.5" x2="794.5" y2="339.5"/>
		<line class="st13" x1="816.5" y1="339.5" x2="914.5" y2="339.5"/>
		<line class="st14" x1="736.5" y1="299.5" x2="864.5" y2="299.5"/>
		<line class="st15" x1="956.5" y1="369.5" x2="1024.5" y2="369.5"/>
		<line class="st16" x1="766.5" y1="369.5" x2="934.5" y2="369.5"/>
		<line class="st17" x1="834.5" y1="389.5" x2="766.5" y2="389.5"/>
		<line class="st18" x1="1024.5" y1="389.5" x2="856.5" y2="389.5"/>
		<line class="st17" x1="884.5" y1="409.5" x2="766.5" y2="409.5"/>
		<line class="st18" x1="1024.5" y1="409.5" x2="906.5" y2="409.5"/>
		<line class="st17" x1="804.5" y1="429.5" x2="766.5" y2="429.5"/>
		<line class="st18" x1="1024.5" y1="429.5" x2="826.5" y2="429.5"/>
		<line class="st17" x1="856.5" y1="449.5" x2="994.5" y2="449.5"/>
		<line class="st16" x1="736.5" y1="449.5" x2="834.5" y2="449.5"/>
		<line class="st15" x1="736.5" y1="469.5" x2="814.5" y2="469.5"/>
	</g>
	<path class="st19" d="M687,303.7c-6-2.6-12-3.9-17.9-3.9s-12.6,1.4-17.9,3.9c-1.6,0.7-2,1.4-1.8,3.1c0.5,5.3,2.6,11.9,5.3,16.8
		c3.9,7.2,10.7,12.9,12.7,14.3c1.2,0.8,2,0.9,3.3,0.1c2.9-1.9,7.6-6.6,10.3-10.4c-3,1.9-8.6,4.8-11.9,6c-4-2.8-7.8-7.5-9.7-10.7
		c-2.1-3.6-4.5-8.3-5.4-15.3c3.3-1.4,8.5-3,15-3c5.2,0,10.2,1,15,3c-0.1,0.5-0.1,1-0.2,1.4c-1.2,5.5-4.6,10.3-9.4,13.2
		c-1.3,0.8-2.7,1.5-4.2,2c-0.8-0.8-1.6-1.7-2.3-2.7c2.3-0.6,5.3-2,7.5-4.1c1.7-1.7,3-3.3,3.7-5c0.7-1.6,0-2.9-1.7-3.4
		c-2.6-0.7-5.8-1-8.5-1c-2.6,0-7,0.6-8.8,1.1c-1.7,0.4-2.3,1.5-1.8,3.2c0.8,3.5,2.5,6.9,4.3,9.6c1.8,2.7,3.2,4.4,5.2,6.3
		c0.8,0.8,1.7,1,2.8,0.6c5.3-1.7,9-4.2,12.7-8.5c3.1-3.7,5.1-8.9,5.4-13.8C688.8,304.9,688.1,304.2,687,303.7z M669,312.3
		c1.6,0,3.2,0.2,4.6,0.4c-1,1.3-2.3,2.3-3.8,3.1c-1.4,0.8-2.9,1.3-4.5,1.5c-0.7-1.1-1.4-2.8-2-4.4
		C664.9,312.5,667.3,312.3,669,312.3z"/>
</g>
<g id="pay_window">
	<g>
		<g class="st6">
			<path d="M424.5,679.6c-7.8,0-14.1-6.3-14.1-14.1v-275c0-7.8,6.3-14.1,14.1-14.1h325c7.8,0,14.1,6.3,14.1,14.1v275
				c0,7.8-6.3,14.1-14.1,14.1H424.5z"/>
			<path d="M749.5,378.3c6.7,0,12.2,5.5,12.2,12.2v275c0,6.7-5.5,12.2-12.2,12.2h-325c-6.7,0-12.2-5.5-12.2-12.2v-275
				c0-6.7,5.5-12.2,12.2-12.2H749.5 M749.5,374.5h-325c-8.8,0-16,7.2-16,16v275c0,8.8,7.2,16,16,16h325c8.8,0,16-7.2,16-16v-275
				C765.5,381.7,758.3,374.5,749.5,374.5L749.5,374.5z"/>
		</g>
		<g>
			<path class="st20" d="M408.5,663.6c-7.8,0-14.1-6.3-14.1-14.1v-275c0-7.8,6.3-14.1,14.1-14.1h325c7.8,0,14.1,6.3,14.1,14.1v275
				c0,7.8-6.3,14.1-14.1,14.1H408.5z"/>
			<path class="st1" d="M733.5,362.3c6.7,0,12.2,5.5,12.2,12.2v275c0,6.7-5.5,12.2-12.2,12.2h-325c-6.7,0-12.2-5.5-12.2-12.2v-275
				c0-6.7,5.5-12.2,12.2-12.2H733.5 M733.5,358.5h-325c-8.8,0-16,7.2-16,16v275c0,8.8,7.2,16,16,16h325c8.8,0,16-7.2,16-16v-275
				C749.5,365.7,742.3,358.5,733.5,358.5L733.5,358.5z"/>
		</g>
	</g>
	<g>
		<path class="st8" d="M394.4,396.6v-22.1c0-7.8,6.3-14.1,14.1-14.1h325c7.8,0,14.1,6.3,14.1,14.1v22.1H394.4z"/>
		<path class="st1" d="M733.5,362.3c6.7,0,12.2,5.5,12.2,12.2v20.2H396.3v-20.2c0-6.7,5.5-12.2,12.2-12.2H733.5 M733.5,358.5h-325
			c-8.8,0-16,7.2-16,16v24h357v-24C749.5,365.7,742.3,358.5,733.5,358.5L733.5,358.5z"/>
	</g>
	<g>
		<circle class="st9" cx="413.5" cy="378.5" r="6"/>
		<path class="st1" d="M413.5,374.5c2.2,0,4,1.8,4,4s-1.8,4-4,4s-4-1.8-4-4S411.3,374.5,413.5,374.5 M413.5,370.5c-4.4,0-8,3.6-8,8
			s3.6,8,8,8s8-3.6,8-8S417.9,370.5,413.5,370.5L413.5,370.5z"/>
	</g>
	<g>
		<circle class="st10" cx="433.5" cy="378.5" r="6"/>
		<path class="st1" d="M433.5,374.5c2.2,0,4,1.8,4,4s-1.8,4-4,4s-4-1.8-4-4S431.3,374.5,433.5,374.5 M433.5,370.5c-4.4,0-8,3.6-8,8
			s3.6,8,8,8s8-3.6,8-8S437.9,370.5,433.5,370.5L433.5,370.5z"/>
	</g>
	<g>
		<circle class="st11" cx="453.5" cy="378.5" r="6"/>
		<path class="st1" d="M453.5,374.5c2.2,0,4,1.8,4,4s-1.8,4-4,4s-4-1.8-4-4S451.3,374.5,453.5,374.5 M453.5,370.5c-4.4,0-8,3.6-8,8
			s3.6,8,8,8s8-3.6,8-8S457.9,370.5,453.5,370.5L453.5,370.5z"/>
	</g>
	<g class="st21">
		<path class="st22" d="M432.5,515.5c-1.7,0-3-1.3-3-3v-8c0-1.7,1.3-3,3-3h59v14H432.5z"/>
		<path class="st1" d="M490.5,502.5v12h-58c-1.1,0-2-0.9-2-2v-8c0-1.1,0.9-2,2-2H490.5 M492.5,500.5h-60c-2.2,0-4,1.8-4,4v8
			c0,2.2,1.8,4,4,4h60V500.5L492.5,500.5z"/>
	</g>
	<g class="st21">
		<rect x="503.5" y="501.5" class="st22" width="62" height="14"/>
		<path class="st1" d="M564.5,502.5v12h-60v-12H564.5 M566.5,500.5h-64v16h64V500.5L566.5,500.5z"/>
	</g>
	<g class="st21">
		<rect x="576.5" y="501.5" class="st22" width="62" height="14"/>
		<path class="st1" d="M637.5,502.5v12h-60v-12H637.5 M639.5,500.5h-64v16h64V500.5L639.5,500.5z"/>
	</g>
	<g class="st21">
		<path class="st22" d="M650.5,515.5v-14h59c1.7,0,3,1.3,3,3v8c0,1.7-1.3,3-3,3H650.5z"/>
		<path class="st1" d="M709.5,502.5c1.1,0,2,0.9,2,2v8c0,1.1-0.9,2-2,2h-58v-12H709.5 M709.5,500.5h-60v16h60c2.2,0,4-1.8,4-4v-8
			C713.5,502.3,711.7,500.5,709.5,500.5L709.5,500.5z"/>
	</g>
	<g>
		<path class="st23" d="M499.5,456.5c-1.7,0-3-1.3-3-3v-16c0-1.7,1.3-3,3-3h69c1.7,0,3,1.3,3,3v16c0,1.7-1.3,3-3,3H499.5z"/>
		<path class="st1" d="M568.5,435.5c1.1,0,2,0.9,2,2v16c0,1.1-0.9,2-2,2h-69c-1.1,0-2-0.9-2-2v-16c0-1.1,0.9-2,2-2H568.5
			 M568.5,433.5h-69c-2.2,0-4,1.8-4,4v16c0,2.2,1.8,4,4,4h69c2.2,0,4-1.8,4-4v-16C572.5,435.3,570.7,433.5,568.5,433.5L568.5,433.5z
			"/>
	</g>
	<g class="st21">
		<path class="st22" d="M432.5,545.5c-1.7,0-3-1.3-3-3v-8c0-1.7,1.3-3,3-3h277c1.7,0,3,1.3,3,3v8c0,1.7-1.3,3-3,3H432.5z"/>
		<path class="st1" d="M709.5,532.5c1.1,0,2,0.9,2,2v8c0,1.1-0.9,2-2,2h-277c-1.1,0-2-0.9-2-2v-8c0-1.1,0.9-2,2-2H709.5
			 M709.5,530.5h-277c-2.2,0-4,1.8-4,4v8c0,2.2,1.8,4,4,4h277c2.2,0,4-1.8,4-4v-8C713.5,532.3,711.7,530.5,709.5,530.5L709.5,530.5z
			"/>
	</g>
	<g class="st21">
		<path class="st22" d="M432.5,575.5c-1.7,0-3-1.3-3-3v-8c0-1.7,1.3-3,3-3h59v14H432.5z"/>
		<path class="st1" d="M490.5,562.5v12h-58c-1.1,0-2-0.9-2-2v-8c0-1.1,0.9-2,2-2H490.5 M492.5,560.5h-60c-2.2,0-4,1.8-4,4v8
			c0,2.2,1.8,4,4,4h60V560.5L492.5,560.5z"/>
	</g>
	<g class="st21">
		<path class="st22" d="M503.5,575.5v-14h59c1.7,0,3,1.3,3,3v8c0,1.7-1.3,3-3,3H503.5z"/>
		<path class="st1" d="M562.5,562.5c1.1,0,2,0.9,2,2v8c0,1.1-0.9,2-2,2h-58v-12H562.5 M562.5,560.5h-60v16h60c2.2,0,4-1.8,4-4v-8
			C566.5,562.3,564.7,560.5,562.5,560.5L562.5,560.5z"/>
	</g>
	<g class="st21">
		<path class="st22" d="M653.5,575.5c-1.7,0-3-1.3-3-3v-8c0-1.7,1.3-3,3-3h56c1.7,0,3,1.3,3,3v8c0,1.7-1.3,3-3,3H653.5z"/>
		<path class="st1" d="M709.5,562.5c1.1,0,2,0.9,2,2v8c0,1.1-0.9,2-2,2h-56c-1.1,0-2-0.9-2-2v-8c0-1.1,0.9-2,2-2H709.5 M709.5,560.5
			h-56c-2.2,0-4,1.8-4,4v8c0,2.2,1.8,4,4,4h56c2.2,0,4-1.8,4-4v-8C713.5,562.3,711.7,560.5,709.5,560.5L709.5,560.5z"/>
	</g>
	<g>
		<path class="st24" d="M432.5,633.5c-1.7,0-3-1.3-3-3v-26c0-1.7,1.3-3,3-3h130c1.7,0,3,1.3,3,3v26c0,1.7-1.3,3-3,3H432.5z"/>
		<path class="st1" d="M562.5,602.5c1.1,0,2,0.9,2,2v26c0,1.1-0.9,2-2,2h-130c-1.1,0-2-0.9-2-2v-26c0-1.1,0.9-2,2-2H562.5
			 M562.5,600.5h-130c-2.2,0-4,1.8-4,4v26c0,2.2,1.8,4,4,4h130c2.2,0,4-1.8,4-4v-26C566.5,602.3,564.7,600.5,562.5,600.5
			L562.5,600.5z"/>
	</g>
	<g>
		<path class="st22" d="M502.5,611.5H499c0.8,0.4,1.4,1.1,1.6,2h1.8v1h-1.9c0,1.1-0.4,2.1-1,2.8c-0.6,0.7-1.5,1.2-2.6,1.6l4.5,6.6
			h-2.3l-3.8-6h-2.9v-2h2.7c1.2,0,2-0.2,2.6-0.7c0.6-0.5,0.9-1.2,1-2.3h-6.3v-1h6.2c-0.2-0.7-0.6-1.2-1.2-1.5
			c-0.6-0.3-1.5-0.5-2.6-0.5h-2.4v-1h10V611.5z"/>
	</g>
	<g>
		<path class="st25" d="M599.5,456.5c-1.7,0-3-1.3-3-3v-16c0-1.7,1.3-3,3-3h69c1.7,0,3,1.3,3,3v16c0,1.7-1.3,3-3,3H599.5z"/>
		<path class="st1" d="M668.5,435.5c1.1,0,2,0.9,2,2v16c0,1.1-0.9,2-2,2h-69c-1.1,0-2-0.9-2-2v-16c0-1.1,0.9-2,2-2H668.5
			 M668.5,433.5h-69c-2.2,0-4,1.8-4,4v16c0,2.2,1.8,4,4,4h69c2.2,0,4-1.8,4-4v-16C672.5,435.3,670.7,433.5,668.5,433.5L668.5,433.5z
			"/>
	</g>
	<g>
		<g>
			<path class="st9" d="M442.5,455.5c-5.5,0-10-4.5-10-10s4.5-10,10-10s10,4.5,10,10S448,455.5,442.5,455.5z"/>
			<path class="st1" d="M442.5,437.5c4.4,0,8,3.6,8,8s-3.6,8-8,8s-8-3.6-8-8S438.1,437.5,442.5,437.5 M442.5,433.5
				c-6.6,0-12,5.4-12,12s5.4,12,12,12s12-5.4,12-12S449.1,433.5,442.5,433.5L442.5,433.5z"/>
		</g>
		<g>
			<path class="st26" d="M456.5,455.5c-5.5,0-10-4.5-10-10s4.5-10,10-10s10,4.5,10,10S462,455.5,456.5,455.5z"/>
			<path class="st1" d="M456.5,437.5c4.4,0,8,3.6,8,8s-3.6,8-8,8s-8-3.6-8-8S452.1,437.5,456.5,437.5 M456.5,433.5
				c-6.6,0-12,5.4-12,12s5.4,12,12,12s12-5.4,12-12S463.1,433.5,456.5,433.5L456.5,433.5z"/>
		</g>
		<g>
			<path class="st27" d="M449.5,452.6c-1.9-1.9-3-4.4-3-7.1c0-2.7,1.1-5.3,3-7.1c1.9,1.9,3,4.4,3,7.1
				C452.5,448.2,451.4,450.8,449.5,452.6z"/>
			<path class="st1" d="M449.5,441.6c0.6,1.2,1,2.5,1,3.9c0,1.4-0.4,2.7-1,3.9c-0.6-1.2-1-2.5-1-3.9
				C448.5,444.1,448.9,442.8,449.5,441.6 M449.5,435.8c-3,2.2-5,5.7-5,9.7c0,4,2,7.6,5,9.7c3-2.2,5-5.7,5-9.7
				C454.5,441.5,452.5,437.9,449.5,435.8L449.5,435.8z"/>
		</g>
	</g>
	<g>
		<g>
			<path class="st9" d="M442.5,456.5c-6.1,0-11-4.9-11-11s4.9-11,11-11s11,4.9,11,11S448.6,456.5,442.5,456.5z"/>
			<path class="st1" d="M442.5,435.5c5.5,0,10,4.5,10,10s-4.5,10-10,10s-10-4.5-10-10S437,435.5,442.5,435.5 M442.5,433.5
				c-6.6,0-12,5.4-12,12s5.4,12,12,12s12-5.4,12-12S449.1,433.5,442.5,433.5L442.5,433.5z"/>
		</g>
		<g>
			<path class="st26" d="M456.5,456.5c-6.1,0-11-4.9-11-11s4.9-11,11-11s11,4.9,11,11S462.6,456.5,456.5,456.5z"/>
			<path class="st1" d="M456.5,435.5c5.5,0,10,4.5,10,10s-4.5,10-10,10s-10-4.5-10-10S451,435.5,456.5,435.5 M456.5,433.5
				c-6.6,0-12,5.4-12,12s5.4,12,12,12s12-5.4,12-12S463.1,433.5,456.5,433.5L456.5,433.5z"/>
		</g>
		<g>
			<path class="st27" d="M449.5,454c-2.5-2.1-4-5.2-4-8.5c0-3.3,1.5-6.4,4-8.5c2.5,2.1,4,5.2,4,8.5C453.5,448.8,452,451.9,449.5,454
				z"/>
			<path class="st1" d="M449.5,438.4c1.9,1.9,3,4.4,3,7.1c0,2.7-1.1,5.3-3,7.1c-1.9-1.9-3-4.4-3-7.1
				C446.5,442.8,447.6,440.2,449.5,438.4 M449.5,435.8c-3,2.2-5,5.7-5,9.7c0,4,2,7.6,5,9.7c3-2.2,5-5.7,5-9.7
				C454.5,441.5,452.5,437.9,449.5,435.8L449.5,435.8z"/>
		</g>
	</g>
</g>
<g id="phone">
	<g class="st6">
		<path d="M1222.5,662.5h-176c-8.8,0-16-7.2-16-16v-408c0-8.8,7.2-16,16-16h176V662.5z"/>
	</g>
	<g>
		<path class="st28" d="M1050.5,639.5c-12.1,0-22-9.9-22-22v-392c0-12.1,9.9-22,22-22h201c12.1,0,22,9.9,22,22v392
			c0,12.1-9.9,22-22,22H1050.5z"/>
		<path class="st1" d="M1251.5,205.5c11,0,20,9,20,20v392c0,11-9,20-20,20h-201c-11,0-20-9-20-20v-392c0-11,9-20,20-20H1251.5
			 M1251.5,201.5h-201c-13.2,0-24,10.8-24,24v392c0,13.2,10.8,24,24,24h201c13.2,0,24-10.8,24-24v-392
			C1275.5,212.3,1264.7,201.5,1251.5,201.5L1251.5,201.5z"/>
	</g>
	<g>
		<path class="st28" d="M1038.5,639.5c-12.1,0-22-9.9-22-22v-392c0-12.1,9.9-22,22-22h201c12.1,0,22,9.9,22,22v392
			c0,12.1-9.9,22-22,22H1038.5z"/>
		<path class="st1" d="M1239.5,205.5c11,0,20,9,20,20v392c0,11-9,20-20,20h-201c-11,0-20-9-20-20v-392c0-11,9-20,20-20H1239.5
			 M1239.5,201.5h-201c-13.2,0-24,10.8-24,24v392c0,13.2,10.8,24,24,24h201c13.2,0,24-10.8,24-24v-392
			C1263.5,212.3,1252.7,201.5,1239.5,201.5L1239.5,201.5z"/>
	</g>
	<g>
		<path class="st29" d="M1038.5,589.5c-3.3,0-6-2.7-6-6v-340c0-3.3,2.7-6,6-6h201c3.3,0,6,2.7,6,6v340c0,3.3-2.7,6-6,6H1038.5z"/>
		<path class="st1" d="M1239.5,239.5c2.2,0,4,1.8,4,4v340c0,2.2-1.8,4-4,4h-201c-2.2,0-4-1.8-4-4v-340c0-2.2,1.8-4,4-4H1239.5
			 M1239.5,235.5h-201c-4.4,0-8,3.6-8,8v340c0,4.4,3.6,8,8,8h201c4.4,0,8-3.6,8-8v-340C1247.5,239.1,1243.9,235.5,1239.5,235.5
			L1239.5,235.5z"/>
	</g>
	<g>
		<path class="st8" d="M1117.5,628.5c-7.7,0-14-6.3-14-14s6.3-14,14-14h41c7.7,0,14,6.3,14,14s-6.3,14-14,14H1117.5z"/>
		<path class="st1" d="M1158.5,602.5c6.6,0,12,5.4,12,12s-5.4,12-12,12h-41c-6.6,0-12-5.4-12-12s5.4-12,12-12H1158.5 M1158.5,598.5
			h-41c-8.8,0-16,7.2-16,16s7.2,16,16,16h41c8.8,0,16-7.2,16-16S1167.3,598.5,1158.5,598.5L1158.5,598.5z"/>
	</g>
	<g>
		<g>
			<g>
				<path class="st22" d="M1061.5,378.5c-3.9,0-7-3.1-7-7v-58c0-3.9,3.1-7,7-7h58c3.9,0,7,3.1,7,7v58c0,3.9-3.1,7-7,7H1061.5z"/>
				<path class="st0" d="M1119.5,307.5c3.3,0,6,2.7,6,6v58c0,3.3-2.7,6-6,6h-58c-3.3,0-6-2.7-6-6v-58c0-3.3,2.7-6,6-6H1119.5
					 M1119.5,305.5h-58c-4.4,0-8,3.6-8,8v58c0,4.4,3.6,8,8,8h58c4.4,0,8-3.6,8-8v-58C1127.5,309.1,1123.9,305.5,1119.5,305.5
					L1119.5,305.5z"/>
			</g>
			<g>
				<path class="st30" d="M1075.7,363.6c0,2.1,0.8,3.2,2.1,3.2c1.1,0,1.7-0.7,1.8-1.8h2c-0.1,2-1.5,3.3-3.7,3.3
					c-2.8,0-4.2-1.7-4.2-4.6c0-3,1.6-4.8,4.2-4.8c2.2,0,3.6,1.2,3.8,3.2h-2c-0.1-1.1-0.8-1.8-1.8-1.8
					C1076.6,360.4,1075.7,361.5,1075.7,363.6z"/>
				<path class="st30" d="M1087.9,366.1h-3.3l-0.7,2h-1.9l3.2-9.1h2.2l3.2,9.1h-2L1087.9,366.1z M1085.9,362l-0.8,2.7h2.4l-0.8-2.6
					c-0.2-0.8-0.3-1.3-0.3-1.3h0C1086.3,360.8,1086.1,361.3,1085.9,362z"/>
				<path class="st30" d="M1095.2,364.7h-1.4v3.5h-2V359h3.6c0.6,0,1.2,0.1,1.8,0.3c0.9,0.4,1.5,1.1,1.5,2.3c0,1.4-0.9,2.2-1.8,2.5
					v0l2,3.9h-2.1L1095.2,364.7z M1095.1,363.3c0.9,0,1.6-0.4,1.6-1.5c0-1.1-0.8-1.4-1.6-1.4h-1.4v2.9H1095.1z"/>
				<path class="st30" d="M1100.3,359h3.1c2.7,0,4.6,1.3,4.6,4.4s-1.8,4.7-4.5,4.7h-3.2V359z M1103.4,366.7c1.6,0,2.6-0.8,2.6-3.1
					c0-2.2-1-3-2.5-3h-1.1v6.2H1103.4z"/>
			</g>
			<path class="st19" d="M1104.4,322.9h-27.2c-1.3,0-2.4,1.1-2.4,2.4v16c0,1.3,1.1,2.4,2.4,2.4h27.2c1.3,0,2.4-1.1,2.4-2.4v-16
				C1106.8,324,1105.7,322.9,1104.4,322.9z M1105.2,327.7H1078v1.6h27.2v3.2H1078v1.6h27.2v7.2c0,0.4-0.4,0.8-0.8,0.8h-27.2
				c-0.4,0-0.8-0.4-0.8-0.8v-16c0-0.4,0.4-0.8,0.8-0.8h27.2c0.4,0,0.8,0.4,0.8,0.8V327.7z"/>
		</g>
		<g>
			<g>
				<path class="st22" d="M1158.5,378.5c-3.9,0-7-3.1-7-7v-58c0-3.9,3.1-7,7-7h58c3.9,0,7,3.1,7,7v58c0,3.9-3.1,7-7,7H1158.5z"/>
				<path class="st0" d="M1216.5,307.5c3.3,0,6,2.7,6,6v58c0,3.3-2.7,6-6,6h-58c-3.3,0-6-2.7-6-6v-58c0-3.3,2.7-6,6-6H1216.5
					 M1216.5,305.5h-58c-4.4,0-8,3.6-8,8v58c0,4.4,3.6,8,8,8h58c4.4,0,8-3.6,8-8v-58C1224.5,309.1,1220.9,305.5,1216.5,305.5
					L1216.5,305.5z"/>
			</g>
			<g>
				<path class="st30" d="M1177.7,359h2l0,5.3c0,0.7,0,1.4,0.4,1.8c0.3,0.4,0.8,0.6,1.4,0.6c0.7,0,1.1-0.2,1.5-0.6
					c0.3-0.4,0.3-1.2,0.3-1.8V359h1.9v5.9c0,2.3-1.5,3.4-3.7,3.4s-3.7-1.1-3.7-3.4V359z"/>
				<path class="st30" d="M1188.8,365v3.1h-2V359h3.2c2,0,3.5,0.8,3.5,2.9c0,2.2-1.6,3-3.6,3H1188.8z M1189.9,363.5
					c1,0,1.6-0.5,1.6-1.6c0-1.1-0.6-1.6-1.6-1.6h-1.2v3.1H1189.9z"/>
				<path class="st30" d="M1194.8,359h2v9.1h-2V359z"/>
			</g>
			<g>
				<path class="st19" d="M1194.1,329c-3,0-6,0-9,0c-0.1,0-0.1,0-0.2,0c-0.1,0-0.1,0.1-0.1,0.1c-0.1,0.5-0.3,1-0.4,1.5
					c2.9,0,5.7,0,8.6,0c0,0.1,0,0.2-0.1,0.3c-0.1,0.4-0.2,0.8-0.3,1.2c-0.1,0.3-0.1,0.3-0.5,0.3c-2.6,0-5.3,0-7.9,0
					c-0.3,0-0.4,0.1-0.4,0.3c-0.3,1-1.1,4.2-1.3,4.8c0.5,0,1.7,0,1.7,0s0.6-2.2,0.9-3.2c0.1-0.2,0.1-0.3,0.4-0.3c2.4,0,4.9,0,7.3,0
					c0.6,0,1-0.3,1.2-0.9c0.3-1.1,0.6-2.2,0.9-3.3C1195,329.3,1194.7,329,1194.1,329z"/>
				<path class="st19" d="M1183.6,329c-0.5,0-0.9,0-1.4,0c-0.2,0-0.3,0.1-0.4,0.3c-0.6,2.1-1.2,4.3-1.8,6.4
					c-0.1,0.2-0.1,0.2-0.3,0.2c-2.1,0-4.2,0-6.4,0c-0.1,0-0.2,0-0.3,0c0.6-2.3,1.3-4.6,1.9-6.9c-0.5,0-1,0-1.6,0
					c-0.1,0-0.1,0.1-0.2,0.2c-0.1,0.3-0.2,0.5-0.2,0.8c-0.6,2.2-1.2,4.5-1.9,6.7c-0.2,0.6,0.1,0.9,0.7,0.9c2.8,0,5.7,0,8.5,0
					c0.7,0,0.9-0.2,1-0.8c0.6-2.3,1.3-4.5,1.9-6.8C1183.4,329.7,1183.5,329.4,1183.6,329z"/>
				<polygon class="st19" points="1203.2,333.3 1201,329 1200.5,331 1199.5,329.1 1197.2,337.5 1199.2,335.7 1198.7,337.6 				"/>
				<path class="st19" d="M1196.4,329l-2.4,8.6h1.6c0,0,2.3-8.1,2.4-8.6C1197.5,329,1196.4,329,1196.4,329z"/>
			</g>
		</g>
	</g>
	<g>
		<g>
			<g>
				<path class="st22" d="M1061.5,563.5c-3.9,0-7-3.1-7-7v-58c0-3.9,3.1-7,7-7h58c3.9,0,7,3.1,7,7v58c0,3.9-3.1,7-7,7H1061.5z"/>
				<path class="st0" d="M1119.5,492.5c3.3,0,6,2.7,6,6v58c0,3.3-2.7,6-6,6h-58c-3.3,0-6-2.7-6-6v-58c0-3.3,2.7-6,6-6H1119.5
					 M1119.5,490.5h-58c-4.4,0-8,3.6-8,8v58c0,4.4,3.6,8,8,8h58c4.4,0,8-3.6,8-8v-58C1127.5,494.1,1123.9,490.5,1119.5,490.5
					L1119.5,490.5z"/>
			</g>
			<g>
				<path class="st30" d="M1075.5,548.6c0,2.1,0.8,3.2,2.1,3.2c1.1,0,1.7-0.7,1.8-1.8h2c-0.1,2-1.5,3.3-3.7,3.3
					c-2.8,0-4.2-1.7-4.2-4.6c0-3,1.6-4.8,4.2-4.8c2.2,0,3.6,1.2,3.8,3.2h-2c-0.1-1.1-0.8-1.8-1.8-1.8
					C1076.3,545.4,1075.5,546.5,1075.5,548.6z"/>
				<path class="st30" d="M1087.7,551.1h-3.3l-0.7,2h-1.9l3.2-9.1h2.2l3.2,9.1h-2L1087.7,551.1z M1085.7,547l-0.8,2.7h2.4l-0.8-2.6
					c-0.2-0.8-0.3-1.3-0.3-1.3h0C1086,545.8,1085.9,546.3,1085.7,547z"/>
				<path class="st30" d="M1096,546.5c0-0.6-0.5-1.2-1.4-1.2c-0.8,0-1.4,0.5-1.4,1.1c0,0.6,0.3,1,1.2,1.1l1.4,0.2
					c1.6,0.3,2.4,1.2,2.4,2.5c0,2-1.3,3-3.7,3c-2.3,0-3.5-1.1-3.6-2.8h2c0.1,0.8,0.6,1.4,1.7,1.4c1.1,0,1.6-0.5,1.6-1.2
					c0-0.6-0.3-1-1.3-1.1l-1.4-0.3c-1.4-0.3-2.3-1.1-2.3-2.6c0-1.6,1.2-2.8,3.4-2.8c2.3,0,3.3,1.2,3.3,2.6H1096z"/>
				<path class="st30" d="M1101.6,553.1h-2V544h2v3.8h3.7V544h2v9.1h-2v-3.8h-3.7V553.1z"/>
			</g>
			<g>
				<path class="st19" d="M1086.3,512.7v1.6h0.8c0,0,3,0,3.8,1.6h-4.6v1.6h4.6c-0.8,1.6-3.8,1.6-3.8,1.6c-0.4,0-0.7,0.2-0.8,0.6
					c-0.1,0.3,0,0.7,0.3,0.9l4.8,3.2l0.9-1.3l-3.1-2c1.5-0.4,3-1.3,3.3-2.9h1.7v-1.6h-1.7c-0.2-0.6-0.5-1.2-0.9-1.6h2.6v-1.6H1086.3
					z"/>
				<path class="st19" d="M1103.9,509.5h-27.2c-1.3,0-2.4,1.1-2.4,2.4v12.8c0,1.3,1.1,2.4,2.4,2.4h27.2c1.3,0,2.4-1.1,2.4-2.4v-12.8
					C1106.3,510.6,1105.2,509.5,1103.9,509.5z M1104.7,524.7c0,0.4-0.4,0.8-0.8,0.8h-27.2c-0.4,0-0.8-0.4-0.8-0.8v-12.8
					c0-0.4,0.4-0.8,0.8-0.8h27.2c0.4,0,0.8,0.4,0.8,0.8V524.7z"/>
				<path class="st19" d="M1076.7,514.3v1.6c2.2,0,4-1.8,4-4h-1.6C1079.1,513.2,1078,514.3,1076.7,514.3z"/>
				<path class="st19" d="M1101.5,511.9h-1.6c0,2.2,1.8,4,4,4v-1.6C1102.6,514.3,1101.5,513.2,1101.5,511.9z"/>
				<path class="st19" d="M1076.7,520.7v1.6c1.3,0,2.4,1.1,2.4,2.4h1.6C1080.7,522.5,1078.9,520.7,1076.7,520.7z"/>
				<path class="st19" d="M1099.9,524.7h1.6c0-1.3,1.1-2.4,2.4-2.4v-1.6C1101.7,520.7,1099.9,522.5,1099.9,524.7z"/>
			</g>
		</g>
		<g>
			<g>
				<path class="st22" d="M1158.5,563.5c-3.9,0-7-3.1-7-7v-58c0-3.9,3.1-7,7-7h58c3.9,0,7,3.1,7,7v58c0,3.9-3.1,7-7,7H1158.5z"/>
				<path class="st0" d="M1216.5,492.5c3.3,0,6,2.7,6,6v58c0,3.3-2.7,6-6,6h-58c-3.3,0-6-2.7-6-6v-58c0-3.3,2.7-6,6-6H1216.5
					 M1216.5,490.5h-58c-4.4,0-8,3.6-8,8v58c0,4.4,3.6,8,8,8h58c4.4,0,8-3.6,8-8v-58C1224.5,494.1,1220.9,490.5,1216.5,490.5
					L1216.5,490.5z"/>
			</g>
			<g>
				<path class="st30" d="M1164.1,547.9c0,2.1,0.8,3.2,2.1,3.2c1.1,0,1.7-0.7,1.8-1.8h2c-0.1,2-1.5,3.3-3.7,3.3
					c-2.8,0-4.2-1.7-4.2-4.6c0-3,1.6-4.8,4.2-4.8c2.2,0,3.6,1.2,3.8,3.2h-2c-0.1-1.1-0.8-1.8-1.8-1.8
					C1165,544.6,1164.1,545.8,1164.1,547.9z"/>
				<path class="st30" d="M1173.4,552.4h-2v-9.1h2v3.8h3.7v-3.8h2v9.1h-2v-3.8h-3.7V552.4z"/>
				<path class="st30" d="M1180.9,543.3h6v1.5h-4v2.3h3.8v1.5h-3.8v2.3h4.2v1.5h-6.1V543.3z"/>
				<path class="st30" d="M1192.5,543.2c2.6,0,4.3,1.7,4.3,4.7c0,1.8-0.6,3.2-1.6,3.8v0.1c0.9,0.1,1.4,0.5,1.8,1.3l-1.7,1
					c-0.6-1.1-1.1-1.5-2.1-1.5c-0.2,0-0.4,0-0.7,0c-2.7,0-4.3-1.6-4.3-4.7C1188.2,544.9,1189.9,543.2,1192.5,543.2z M1194.7,547.9
					c0-2.2-0.9-3.3-2.2-3.3c-1.3,0-2.2,1.1-2.2,3.3c0,2.2,0.8,3.3,2.2,3.3C1193.9,551.2,1194.7,550.2,1194.7,547.9z"/>
				<path class="st30" d="M1198.1,543.3h2l0,5.3c0,0.7,0,1.4,0.4,1.8c0.3,0.4,0.8,0.6,1.4,0.6c0.7,0,1.1-0.2,1.5-0.6
					c0.3-0.4,0.3-1.2,0.3-1.8v-5.3h1.9v5.9c0,2.3-1.5,3.4-3.7,3.4s-3.7-1.1-3.7-3.4V543.3z"/>
				<path class="st30" d="M1207.3,543.3h6v1.5h-4v2.3h3.8v1.5h-3.8v2.3h4.2v1.5h-6.1V543.3z"/>
			</g>
			<g>
				<rect x="1177.3" y="515.1" class="st19" width="14.4" height="1.6"/>
				<rect x="1177.3" y="518.3" class="st19" width="9.6" height="1.6"/>
				<path class="st19" d="M1201.3,510.3h-27.2c-1.3,0-2.4,1.1-2.4,2.4v11.2c0,1.3,1.1,2.4,2.4,2.4h10.4v-1.6h-10.4
					c-0.4,0-0.8-0.4-0.8-0.8v-11.2c0-0.4,0.4-0.8,0.8-0.8h27.2c0.4,0,0.8,0.4,0.8,0.8v11.2c0,0.4-0.4,0.8-0.8,0.8h-7.2v1.6h7.2
					c1.3,0,2.4-1.1,2.4-2.4v-11.2C1203.7,511.4,1202.6,510.3,1201.3,510.3z"/>
				<path class="st19" d="M1200.8,515.1c0-0.5-0.2-1-0.6-1.4c-0.7-0.7-2-0.7-2.7,0l-9.6,9.6c-0.2,0.1-0.2,0.4-0.2,0.6v1.6
					c0,0.4,0.4,0.8,0.8,0.8h1.6c0.2,0,0.4-0.1,0.6-0.2l9.6-9.6C1200.6,516.1,1200.8,515.6,1200.8,515.1z M1199.1,515.4l-9.4,9.4
					h-0.5v-0.5l9.4-9.4c0.1-0.1,0.3-0.1,0.5,0C1199.3,515,1199.3,515.2,1199.1,515.4z"/>
			</g>
		</g>
	</g>
	<g>
		<g>
			<g>
				<path class="st22" d="M1061.5,471c-3.9,0-7-3.1-7-7v-58c0-3.9,3.1-7,7-7h58c3.9,0,7,3.1,7,7v58c0,3.9-3.1,7-7,7H1061.5z"/>
				<path class="st0" d="M1119.5,400c3.3,0,6,2.7,6,6v58c0,3.3-2.7,6-6,6h-58c-3.3,0-6-2.7-6-6v-58c0-3.3,2.7-6,6-6H1119.5
					 M1119.5,398h-58c-4.4,0-8,3.6-8,8v58c0,4.4,3.6,8,8,8h58c4.4,0,8-3.6,8-8v-58C1127.5,401.6,1123.9,398,1119.5,398L1119.5,398z"
					/>
			</g>
			<g>
				<path class="st30" d="M1068.9,454c0-0.6-0.5-1.2-1.4-1.2c-0.8,0-1.4,0.5-1.4,1.1c0,0.6,0.3,1,1.2,1.1l1.4,0.2
					c1.6,0.3,2.4,1.2,2.4,2.5c0,2-1.3,3-3.7,3c-2.3,0-3.5-1.1-3.6-2.8h2c0.1,0.8,0.6,1.4,1.7,1.4c1.1,0,1.6-0.5,1.6-1.2
					c0-0.6-0.3-1-1.3-1.1l-1.4-0.3c-1.4-0.3-2.3-1.1-2.3-2.6c0-1.6,1.2-2.8,3.4-2.8c2.3,0,3.3,1.2,3.3,2.6H1068.9z"/>
				<path class="st30" d="M1072.6,451.5h2.8l1.6,4.9c0.3,0.8,0.4,1.3,0.4,1.3h0c0,0,0.1-0.6,0.4-1.3l1.6-4.9h2.8v9.1h-1.9v-7.1h0
					c0,0-0.2,0.8-0.6,1.9l-1.7,5.2h-1.5l-1.7-5.2c-0.4-1.1-0.5-1.9-0.5-1.9h0v7.1h-1.8V451.5z"/>
				<path class="st30" d="M1088.8,454c0-0.6-0.5-1.2-1.4-1.2c-0.8,0-1.4,0.5-1.4,1.1c0,0.6,0.3,1,1.2,1.1l1.4,0.2
					c1.6,0.3,2.4,1.2,2.4,2.5c0,2-1.3,3-3.7,3c-2.3,0-3.5-1.1-3.6-2.8h2c0.1,0.8,0.6,1.4,1.7,1.4c1.1,0,1.6-0.5,1.6-1.2
					c0-0.6-0.3-1-1.3-1.1l-1.4-0.3c-1.4-0.3-2.3-1.1-2.3-2.6c0-1.6,1.2-2.8,3.4-2.8c2.3,0,3.3,1.2,3.3,2.6H1088.8z"/>
				<path class="st30" d="M1097.1,457.5v3.1h-2v-9.1h3.2c2,0,3.5,0.8,3.5,2.9c0,2.2-1.6,3-3.6,3H1097.1z M1098.3,456.1
					c1,0,1.6-0.5,1.6-1.6c0-1.1-0.6-1.6-1.6-1.6h-1.2v3.1H1098.3z"/>
				<path class="st30" d="M1107.7,458.6h-3.3l-0.7,2h-1.9l3.2-9.1h2.2l3.2,9.1h-2L1107.7,458.6z M1105.6,454.5l-0.8,2.7h2.4
					l-0.8-2.6c-0.2-0.8-0.3-1.3-0.3-1.3h0C1106,453.3,1105.9,453.8,1105.6,454.5z"/>
				<path class="st30" d="M1112.8,456.8l-3-5.3h2.2l1.9,3.6h0l1.9-3.6h2l-3,5.3v3.8h-2V456.8z"/>
			</g>
			<g>
				<polygon class="st19" points="1094.6,427.2 1093.4,426.1 1091.6,427.9 1091.6,409.8 1090,409.8 1090,427.9 1088.2,426.1 
					1087,427.2 1090.8,431 				"/>
				<rect x="1088.4" y="437" class="st19" width="4.8" height="1.6"/>
				<path class="st19" d="M1098.8,411.4h-4v1.6h4c0.4,0,0.8,0.4,0.8,0.8v20H1082v-20c0-0.4,0.4-0.8,0.8-0.8h4v-1.6h-4
					c-1.3,0-2.4,1.1-2.4,2.4v25.6c0,1.3,1.1,2.4,2.4,2.4h16c1.3,0,2.4-1.1,2.4-2.4v-25.6C1101.2,412.5,1100.1,411.4,1098.8,411.4z
					 M1098.8,440.2h-16c-0.4,0-0.8-0.4-0.8-0.8v-4h17.6v4C1099.6,439.9,1099.2,440.2,1098.8,440.2z"/>
			</g>
		</g>
		<g>
			<g>
				<path class="st22" d="M1158.5,471c-3.9,0-7-3.1-7-7v-58c0-3.9,3.1-7,7-7h58c3.9,0,7,3.1,7,7v58c0,3.9-3.1,7-7,7H1158.5z"/>
				<path class="st0" d="M1216.5,400c3.3,0,6,2.7,6,6v58c0,3.3-2.7,6-6,6h-58c-3.3,0-6-2.7-6-6v-58c0-3.3,2.7-6,6-6H1216.5
					 M1216.5,398h-58c-4.4,0-8,3.6-8,8v58c0,4.4,3.6,8,8,8h58c4.4,0,8-3.6,8-8v-58C1224.5,401.6,1220.9,398,1216.5,398L1216.5,398z"
					/>
			</g>
			<g>
				<path class="st30" d="M1164.2,460.7l-2.4-9.1h2l1.3,5.2c0.2,0.9,0.3,1.5,0.3,1.5h0c0,0,0.1-0.6,0.3-1.5l1.4-5.2h1.8l1.4,5.2
					c0.2,0.9,0.4,1.5,0.4,1.5h0c0,0,0.1-0.6,0.3-1.5l1.2-5.2h1.8l-2.4,9.1h-1.9l-1.5-5.4c-0.2-0.9-0.3-1.4-0.3-1.4h0
					c0,0,0,0.5-0.3,1.4l-1.5,5.4H1164.2z"/>
				<path class="st30" d="M1179.9,458.6h-3.3l-0.7,2h-1.9l3.2-9.1h2.2l3.2,9.1h-2L1179.9,458.6z M1177.8,454.6l-0.8,2.7h2.4
					l-0.8-2.6c-0.2-0.8-0.3-1.3-0.3-1.3h0C1178.2,453.3,1178.1,453.8,1177.8,454.6z"/>
				<path class="st30" d="M1183.7,451.6h2v7.6h3.9v1.5h-5.9V451.6z"/>
				<path class="st30" d="M1191,451.6h2v7.6h3.9v1.5h-5.9V451.6z"/>
				<path class="st30" d="M1198.2,451.6h6v1.5h-4v2.3h3.8v1.5h-3.8v2.3h4.2v1.5h-6.1V451.6z"/>
				<path class="st30" d="M1212.6,453.1h-2.7v7.6h-2v-7.6h-2.7v-1.5h7.3V453.1z"/>
			</g>
			<g>
				<path class="st19" d="M1199.8,435.9c0,0.5-0.4,0.8-0.8,0.8h-25.3c-0.5,0-0.8-0.4-0.8-0.8v-17.8c0.3,0.1,0.5,0.2,0.8,0.2h25.3
					c0.5,0,0.8,0.4,0.8,0.8v0.8v1.7h1.7v-1.7v-0.8v-3.4c0-1.4-1.1-2.5-2.5-2.5h-25.3c-1.4,0-2.5,1.1-2.5,2.5v20.2
					c0,1.4,1.1,2.5,2.5,2.5h25.3c1.4,0,2.5-1.1,2.5-2.5v-2.5h-1.7V435.9z M1172.9,415.7c0-0.5,0.4-0.8,0.8-0.8h25.3
					c0.5,0,0.8,0.4,0.8,0.8v1c-0.3-0.1-0.5-0.2-0.8-0.2h-25.3C1173.3,416.6,1172.9,416.2,1172.9,415.7L1172.9,415.7z"/>
				<path class="st19" d="M1200.7,423.3h-6.7c-2.3,0-4.2,1.9-4.2,4.2s1.9,4.2,4.2,4.2h6.7c1.4,0,2.5-1.1,2.5-2.5v-3.4
					C1203.2,424.4,1202.1,423.3,1200.7,423.3z M1201.5,429.2c0,0.5-0.4,0.8-0.8,0.8h-6.7c-1.4,0-2.5-1.1-2.5-2.5s1.1-2.5,2.5-2.5
					h6.7c0.5,0,0.8,0.4,0.8,0.8V429.2z"/>
				<path class="st19" d="M1193.9,425.8c-0.9,0-1.7,0.8-1.7,1.7c0,0.9,0.8,1.7,1.7,1.7s1.7-0.8,1.7-1.7
					C1195.6,426.6,1194.9,425.8,1193.9,425.8z M1193.9,427.5L1193.9,427.5h0.8H1193.9z"/>
			</g>
		</g>
	</g>
	<g>
		<g>
			<path class="st8" d="M1182.5,223.5h-69c-1.1,0-2-0.9-2-2l0,0c0-1.1,0.9-2,2-2h69c1.1,0,2,0.9,2,2l0,0
				C1184.5,222.6,1183.6,223.5,1182.5,223.5z"/>
			<path class="st1" d="M1182.5,219.5h-69c-1.1,0-2,0.9-2,2s0.9,2,2,2h69c1.1,0,2-0.9,2-2S1183.6,219.5,1182.5,219.5L1182.5,219.5z"
				/>
		</g>
		<g>
			<circle class="st8" cx="1097.5" cy="221.5" r="2"/>
			<path class="st1" d="M1097.5,221.5L1097.5,221.5C1097.5,221.5,1097.5,221.5,1097.5,221.5 M1097.5,217.5c-2.2,0-4,1.8-4,4
				s1.8,4,4,4s4-1.8,4-4S1099.7,217.5,1097.5,217.5L1097.5,217.5z"/>
		</g>
	</g>
	<g class="st31">
		<path d="M1059.7,285v4.2h-2.6V277h4.3c2.7,0,4.7,1.1,4.7,4c0,3-2.2,4.1-4.9,4.1H1059.7z M1061.3,283.1c1.4,0,2.1-0.7,2.1-2.1
			c0-1.5-0.8-2.1-2.1-2.1h-1.6v4.2H1061.3z"/>
		<path d="M1067.1,283.2c0.1-1.7,1.5-2.7,3.7-2.7c2.8,0,3.7,1.1,3.7,3.4v3c0,0.5,0.1,0.6,0.7,0.6v1.8h-0.8c-1.2,0-1.8-0.2-2.1-1.2h0
			c-0.5,0.8-1.4,1.3-2.6,1.3c-1.8,0-2.9-0.9-2.9-2.5c0-1,0.4-1.7,1.3-2.1c0.9-0.5,2.2-0.6,4-0.6v-0.5c0-0.9-0.4-1.4-1.3-1.4
			c-0.8,0-1.2,0.5-1.3,1.1H1067.1z M1072.1,285.6v-0.3c-1.3,0.1-2,0.2-2.4,0.5c-0.3,0.2-0.4,0.5-0.4,0.9c0,0.6,0.4,1.1,1.1,1.1
			C1071.3,287.7,1072.1,287,1072.1,285.6z"/>
		<path d="M1075.6,280.6h2.6l1.4,4.5c0.3,0.9,0.4,1.7,0.4,1.7h0c0,0,0.1-0.8,0.4-1.7l1.3-4.5h2.5l-3,8.9c-0.7,2-1.5,2.9-3.7,2.9
			c-0.8,0-1.2-0.1-1.3-0.1v-1.9c0.1,0,0.5,0.1,0.9,0.1c1,0,1.4-0.3,1.6-1l0.1-0.2L1075.6,280.6z"/>
		<path d="M1088.4,280.6h2.4l1.1,4.3c0.2,0.9,0.3,1.8,0.3,1.8h0c0,0,0.2-0.9,0.4-1.8l1.3-4.3h2.1l1.3,4.3c0.3,0.9,0.4,1.8,0.4,1.8
			h0.1c0,0,0.1-0.9,0.4-1.8l1.1-4.3h2.2l-2.5,8.6h-2.4l-1-3.4c-0.3-1-0.6-2.6-0.6-2.6h0c0,0-0.3,1.6-0.6,2.6l-1.1,3.4h-2.4
			L1088.4,280.6z"/>
		<path d="M1102.9,276.8h2.6v2.3h-2.6V276.8z M1102.9,280.6h2.5v8.6h-2.5V280.6z"/>
		<path d="M1110.7,278.2v2.4h1.9v1.8h-1.9v3.8c0,0.9,0.3,1.2,1.2,1.2c0.3,0,0.7-0.1,0.7-0.1v1.9c-0.3,0-1,0.1-1.7,0.1
			c-1.7,0-2.7-0.7-2.7-2.7v-4.3h-1.3v-1.7h0.3c1.1,0,1.3-0.2,1.3-1.8v-0.7H1110.7z"/>
		<path d="M1119.7,284.2c0-0.6,0-1.1-0.3-1.4c-0.2-0.3-0.6-0.5-1.1-0.5c-1.1,0-1.7,0.7-1.7,2v5h-2.5v-12.6h2.5v5.4h0
			c0.4-0.8,1.3-1.6,2.7-1.6c2.1,0,2.9,1.1,2.9,3.2v5.6h-2.5V284.2z"/>
		<path d="M1124.2,283.3h12.5v1.7h-12.5V283.3z"/>
	</g>
</g>
<g id="card_machine">
	<g>
		<path class="st32" d="M124.5,703.5c-7.7,0-14-6.3-14-14v-258c0-7.7,6.3-14,14-14h132c7.7,0,14,6.3,14,14v258c0,7.7-6.3,14-14,14
			H124.5z"/>
		<path class="st1" d="M256.5,419.5c6.6,0,12,5.4,12,12v258c0,6.6-5.4,12-12,12h-132c-6.6,0-12-5.4-12-12v-258c0-6.6,5.4-12,12-12
			H256.5 M256.5,415.5h-132c-8.8,0-16,7.2-16,16v258c0,8.8,7.2,16,16,16h132c8.8,0,16-7.2,16-16v-258
			C272.5,422.7,265.3,415.5,256.5,415.5L256.5,415.5z"/>
	</g>
	<g>
		<path class="st32" d="M109.5,703.5c-7.7,0-14-6.3-14-14v-258c0-7.7,6.3-14,14-14h132c7.7,0,14,6.3,14,14v258c0,7.7-6.3,14-14,14
			H109.5z"/>
		<path class="st1" d="M241.5,419.5c6.6,0,12,5.4,12,12v258c0,6.6-5.4,12-12,12h-132c-6.6,0-12-5.4-12-12v-258c0-6.6,5.4-12,12-12
			H241.5 M241.5,415.5h-132c-8.8,0-16,7.2-16,16v258c0,8.8,7.2,16,16,16h132c8.8,0,16-7.2,16-16v-258
			C257.5,422.7,250.3,415.5,241.5,415.5L241.5,415.5z"/>
	</g>
	<g>
		<path class="st8" d="M122.5,505.5c-3.3,0-6-2.7-6-6v-54c0-3.3,2.7-6,6-6h106c3.3,0,6,2.7,6,6v54c0,3.3-2.7,6-6,6H122.5z"/>
		<path class="st1" d="M228.5,441.5c2.2,0,4,1.8,4,4v54c0,2.2-1.8,4-4,4h-106c-2.2,0-4-1.8-4-4v-54c0-2.2,1.8-4,4-4H228.5
			 M228.5,437.5h-106c-4.4,0-8,3.6-8,8v54c0,4.4,3.6,8,8,8h106c4.4,0,8-3.6,8-8v-54C236.5,441.1,232.9,437.5,228.5,437.5
			L228.5,437.5z"/>
	</g>
	<g>
		<path class="st33" d="M265.5,619.5v-133h140c3.3,0,6,2.7,6,6v121c0,3.3-2.7,6-6,6H265.5z"/>
		<path class="st1" d="M405.5,488.5c2.2,0,4,1.8,4,4v121c0,2.2-1.8,4-4,4h-138v-129H405.5 M405.5,484.5h-142v137h142
			c4.4,0,8-3.6,8-8v-121C413.5,488.1,409.9,484.5,405.5,484.5L405.5,484.5z"/>
	</g>
	<g>
		<path d="M122.5,555.5c-3.9,0-7-3.1-7-7v-19c0-3.9,3.1-7,7-7h19c3.9,0,7,3.1,7,7v19c0,3.9-3.1,7-7,7H122.5z"/>
		<path class="st1" d="M141.5,523.5c3.3,0,6,2.7,6,6v19c0,3.3-2.7,6-6,6h-19c-3.3,0-6-2.7-6-6v-19c0-3.3,2.7-6,6-6H141.5
			 M141.5,521.5h-19c-4.4,0-8,3.6-8,8v19c0,4.4,3.6,8,8,8h19c4.4,0,8-3.6,8-8v-19C149.5,525.1,145.9,521.5,141.5,521.5L141.5,521.5z
			"/>
	</g>
	<g>
		<path d="M165.5,555.5c-3.9,0-7-3.1-7-7v-19c0-3.9,3.1-7,7-7h19c3.9,0,7,3.1,7,7v19c0,3.9-3.1,7-7,7H165.5z"/>
		<path class="st1" d="M184.5,523.5c3.3,0,6,2.7,6,6v19c0,3.3-2.7,6-6,6h-19c-3.3,0-6-2.7-6-6v-19c0-3.3,2.7-6,6-6H184.5
			 M184.5,521.5h-19c-4.4,0-8,3.6-8,8v19c0,4.4,3.6,8,8,8h19c4.4,0,8-3.6,8-8v-19C192.5,525.1,188.9,521.5,184.5,521.5L184.5,521.5z
			"/>
	</g>
	<g>
		<path d="M209.5,555.5c-3.9,0-7-3.1-7-7v-19c0-3.9,3.1-7,7-7h19c3.9,0,7,3.1,7,7v19c0,3.9-3.1,7-7,7H209.5z"/>
		<path class="st1" d="M228.5,523.5c3.3,0,6,2.7,6,6v19c0,3.3-2.7,6-6,6h-19c-3.3,0-6-2.7-6-6v-19c0-3.3,2.7-6,6-6H228.5
			 M228.5,521.5h-19c-4.4,0-8,3.6-8,8v19c0,4.4,3.6,8,8,8h19c4.4,0,8-3.6,8-8v-19C236.5,525.1,232.9,521.5,228.5,521.5L228.5,521.5z
			"/>
	</g>
	<g>
		<path d="M122.5,598.5c-3.9,0-7-3.1-7-7v-19c0-3.9,3.1-7,7-7h19c3.9,0,7,3.1,7,7v19c0,3.9-3.1,7-7,7H122.5z"/>
		<path class="st1" d="M141.5,566.5c3.3,0,6,2.7,6,6v19c0,3.3-2.7,6-6,6h-19c-3.3,0-6-2.7-6-6v-19c0-3.3,2.7-6,6-6H141.5
			 M141.5,564.5h-19c-4.4,0-8,3.6-8,8v19c0,4.4,3.6,8,8,8h19c4.4,0,8-3.6,8-8v-19C149.5,568.1,145.9,564.5,141.5,564.5L141.5,564.5z
			"/>
	</g>
	<g>
		<path d="M165.5,598.5c-3.9,0-7-3.1-7-7v-19c0-3.9,3.1-7,7-7h19c3.9,0,7,3.1,7,7v19c0,3.9-3.1,7-7,7H165.5z"/>
		<path class="st1" d="M184.5,566.5c3.3,0,6,2.7,6,6v19c0,3.3-2.7,6-6,6h-19c-3.3,0-6-2.7-6-6v-19c0-3.3,2.7-6,6-6H184.5
			 M184.5,564.5h-19c-4.4,0-8,3.6-8,8v19c0,4.4,3.6,8,8,8h19c4.4,0,8-3.6,8-8v-19C192.5,568.1,188.9,564.5,184.5,564.5L184.5,564.5z
			"/>
	</g>
	<g>
		<path d="M209.5,598.5c-3.9,0-7-3.1-7-7v-19c0-3.9,3.1-7,7-7h19c3.9,0,7,3.1,7,7v19c0,3.9-3.1,7-7,7H209.5z"/>
		<path class="st1" d="M228.5,566.5c3.3,0,6,2.7,6,6v19c0,3.3-2.7,6-6,6h-19c-3.3,0-6-2.7-6-6v-19c0-3.3,2.7-6,6-6H228.5
			 M228.5,564.5h-19c-4.4,0-8,3.6-8,8v19c0,4.4,3.6,8,8,8h19c4.4,0,8-3.6,8-8v-19C236.5,568.1,232.9,564.5,228.5,564.5L228.5,564.5z
			"/>
	</g>
	<g>
		<path d="M122.5,642.5c-3.9,0-7-3.1-7-7v-19c0-3.9,3.1-7,7-7h19c3.9,0,7,3.1,7,7v19c0,3.9-3.1,7-7,7H122.5z"/>
		<path class="st1" d="M141.5,610.5c3.3,0,6,2.7,6,6v19c0,3.3-2.7,6-6,6h-19c-3.3,0-6-2.7-6-6v-19c0-3.3,2.7-6,6-6H141.5
			 M141.5,608.5h-19c-4.4,0-8,3.6-8,8v19c0,4.4,3.6,8,8,8h19c4.4,0,8-3.6,8-8v-19C149.5,612.1,145.9,608.5,141.5,608.5L141.5,608.5z
			"/>
	</g>
	<g>
		<path d="M165.5,642.5c-3.9,0-7-3.1-7-7v-19c0-3.9,3.1-7,7-7h19c3.9,0,7,3.1,7,7v19c0,3.9-3.1,7-7,7H165.5z"/>
		<path class="st1" d="M184.5,610.5c3.3,0,6,2.7,6,6v19c0,3.3-2.7,6-6,6h-19c-3.3,0-6-2.7-6-6v-19c0-3.3,2.7-6,6-6H184.5
			 M184.5,608.5h-19c-4.4,0-8,3.6-8,8v19c0,4.4,3.6,8,8,8h19c4.4,0,8-3.6,8-8v-19C192.5,612.1,188.9,608.5,184.5,608.5L184.5,608.5z
			"/>
	</g>
	<g>
		<path d="M209.5,642.5c-3.9,0-7-3.1-7-7v-19c0-3.9,3.1-7,7-7h19c3.9,0,7,3.1,7,7v19c0,3.9-3.1,7-7,7H209.5z"/>
		<path class="st1" d="M228.5,610.5c3.3,0,6,2.7,6,6v19c0,3.3-2.7,6-6,6h-19c-3.3,0-6-2.7-6-6v-19c0-3.3,2.7-6,6-6H228.5
			 M228.5,608.5h-19c-4.4,0-8,3.6-8,8v19c0,4.4,3.6,8,8,8h19c4.4,0,8-3.6,8-8v-19C236.5,612.1,232.9,608.5,228.5,608.5L228.5,608.5z
			"/>
	</g>
	<g>
		<path class="st34" d="M122.5,686.5c-3.9,0-7-3.1-7-7v-19c0-3.9,3.1-7,7-7h19c3.9,0,7,3.1,7,7v19c0,3.9-3.1,7-7,7H122.5z"/>
		<path class="st1" d="M141.5,654.5c3.3,0,6,2.7,6,6v19c0,3.3-2.7,6-6,6h-19c-3.3,0-6-2.7-6-6v-19c0-3.3,2.7-6,6-6H141.5
			 M141.5,652.5h-19c-4.4,0-8,3.6-8,8v19c0,4.4,3.6,8,8,8h19c4.4,0,8-3.6,8-8v-19C149.5,656.1,145.9,652.5,141.5,652.5L141.5,652.5z
			"/>
	</g>
	<g>
		<path d="M165.5,686.5c-3.9,0-7-3.1-7-7v-19c0-3.9,3.1-7,7-7h19c3.9,0,7,3.1,7,7v19c0,3.9-3.1,7-7,7H165.5z"/>
		<path class="st1" d="M184.5,654.5c3.3,0,6,2.7,6,6v19c0,3.3-2.7,6-6,6h-19c-3.3,0-6-2.7-6-6v-19c0-3.3,2.7-6,6-6H184.5
			 M184.5,652.5h-19c-4.4,0-8,3.6-8,8v19c0,4.4,3.6,8,8,8h19c4.4,0,8-3.6,8-8v-19C192.5,656.1,188.9,652.5,184.5,652.5L184.5,652.5z
			"/>
	</g>
	<g>
		<path class="st35" d="M209.5,686.5c-3.9,0-7-3.1-7-7v-19c0-3.9,3.1-7,7-7h19c3.9,0,7,3.1,7,7v19c0,3.9-3.1,7-7,7H209.5z"/>
		<path class="st1" d="M228.5,654.5c3.3,0,6,2.7,6,6v19c0,3.3-2.7,6-6,6h-19c-3.3,0-6-2.7-6-6v-19c0-3.3,2.7-6,6-6H228.5
			 M228.5,652.5h-19c-4.4,0-8,3.6-8,8v19c0,4.4,3.6,8,8,8h19c4.4,0,8-3.6,8-8v-19C236.5,656.1,232.9,652.5,228.5,652.5L228.5,652.5z
			"/>
	</g>
	<g>
		<path class="st36" d="M342.5,561.5v-8h46c0.6,0,1,0.4,1,1v6c0,0.6-0.4,1-1,1H342.5z"/>
		<path class="st1" d="M388.5,554.5v6h-45v-6H388.5 M388.5,552.5h-47v10h47c1.1,0,2-0.9,2-2v-6C390.5,553.4,389.6,552.5,388.5,552.5
			L388.5,552.5z"/>
	</g>
	<g>
		<rect x="279.5" y="553.5" class="st36" width="47" height="8"/>
		<path class="st1" d="M325.5,554.5v6h-45v-6H325.5 M327.5,552.5h-49v10h49V552.5L327.5,552.5z"/>
	</g>
	<g>
		<g>
			<path class="st9" d="M368,524.5c-5.2,0-9.5-4.3-9.5-9.5s4.3-9.5,9.5-9.5s9.5,4.3,9.5,9.5S373.2,524.5,368,524.5z"/>
			<path class="st1" d="M368,506.5c4.7,0,8.5,3.8,8.5,8.5s-3.8,8.5-8.5,8.5s-8.5-3.8-8.5-8.5S363.3,506.5,368,506.5 M368,504.5
				c-5.8,0-10.5,4.7-10.5,10.5s4.7,10.5,10.5,10.5s10.5-4.7,10.5-10.5S373.8,504.5,368,504.5L368,504.5z"/>
		</g>
		<g>
			<path class="st26" d="M380,524.5c-5.2,0-9.5-4.3-9.5-9.5s4.3-9.5,9.5-9.5s9.5,4.3,9.5,9.5S385.2,524.5,380,524.5z"/>
			<path class="st1" d="M380,506.5c4.7,0,8.5,3.8,8.5,8.5s-3.8,8.5-8.5,8.5s-8.5-3.8-8.5-8.5S375.3,506.5,380,506.5 M380,504.5
				c-5.8,0-10.5,4.7-10.5,10.5s4.7,10.5,10.5,10.5s10.5-4.7,10.5-10.5S385.8,504.5,380,504.5L380,504.5z"/>
		</g>
		<g>
			<path class="st27" d="M374.3,522.4c-2.1-1.8-3.4-4.4-3.4-7.2s1.2-5.4,3.4-7.2c2.1,1.8,3.4,4.4,3.4,7.2
				C377.6,518,376.4,520.7,374.3,522.4z"/>
			<path class="st1" d="M374.3,509.4c1.5,1.6,2.4,3.7,2.4,5.8c0,2.2-0.9,4.3-2.4,5.8c-1.5-1.6-2.4-3.7-2.4-5.8
				C371.9,513,372.8,510.9,374.3,509.4 M374.3,506.7c-2.6,1.9-4.4,5-4.4,8.5c0,3.5,1.7,6.6,4.4,8.5c2.6-1.9,4.4-5,4.4-8.5
				C378.6,511.7,376.9,508.6,374.3,506.7L374.3,506.7z"/>
		</g>
	</g>
	<g>
		<rect x="266.5" y="580.5" class="st36" width="60" height="8"/>
		<path class="st1" d="M325.5,581.5v6h-58v-6H325.5 M327.5,579.5h-62v10h62V579.5L327.5,579.5z"/>
	</g>
	<g>
		<rect x="266.5" y="597.5" class="st36" width="18" height="8"/>
		<path class="st1" d="M283.5,598.5v6h-16v-6H283.5 M285.5,596.5h-20v10h20V596.5L285.5,596.5z"/>
	</g>
	<g>
		<path class="st37" d="M155.4,489.1h-2.9l-0.6,1.8h-1.6l2.8-8h1.9l2.8,8H156L155.4,489.1z M153.6,485.5l-0.7,2.3h2.1l-0.7-2.3
			c-0.2-0.7-0.3-1.2-0.3-1.2h0C153.9,484.4,153.8,484.9,153.6,485.5z"/>
		<path class="st37" d="M158.7,485.3h1.6v0.9h0c0.3-0.5,0.9-1,1.8-1c1.3,0,2.3,0.8,2.3,2.9c0,1.9-1,3-2.4,3c-0.8,0-1.3-0.4-1.5-0.8
			h0v2.7h-1.7V485.3z M161.5,489.9c0.7,0,1.2-0.6,1.2-1.8c0-1.2-0.4-1.8-1.2-1.8c-0.7,0-1.1,0.6-1.1,1.5v0.6
			C160.3,489.3,160.7,489.9,161.5,489.9z"/>
		<path class="st37" d="M165.4,485.3h1.6v0.9h0c0.3-0.5,0.9-1,1.8-1c1.3,0,2.3,0.8,2.3,2.9c0,1.9-1,3-2.4,3c-0.8,0-1.3-0.4-1.5-0.8
			h0v2.7h-1.7V485.3z M168.2,489.9c0.7,0,1.2-0.6,1.2-1.8c0-1.2-0.4-1.8-1.2-1.8c-0.7,0-1.1,0.6-1.1,1.5v0.6
			C167,489.3,167.4,489.9,168.2,489.9z"/>
		<path class="st37" d="M172.1,485.3h1.6v1.2h0c0.3-0.8,1.1-1.3,1.9-1.3h0.1v1.5h-0.3c-1,0-1.6,0.3-1.6,1.4v2.8h-1.7V485.3z"/>
		<path class="st37" d="M176.1,488.1c0-1.8,1.1-2.9,2.8-2.9c1.7,0,2.8,1.1,2.8,2.9c0,1.8-1.2,3-2.8,3
			C177.2,491,176.1,489.9,176.1,488.1z M177.8,488.1c0,1.1,0.3,1.8,1.1,1.8c0.8,0,1.1-0.8,1.1-1.8c0-1.1-0.3-1.8-1.1-1.8
			C178.1,486.3,177.8,487.1,177.8,488.1z"/>
		<path class="st37" d="M182.1,485.3h1.7l0.9,2.8c0.2,0.6,0.3,1.2,0.3,1.2h0c0,0,0.1-0.6,0.3-1.2l0.9-2.8h1.6l-2,5.6h-1.7
			L182.1,485.3z"/>
		<path class="st37" d="M191,491c-1.8,0-2.8-1.2-2.8-3c0-1.7,1-2.9,2.8-2.9c1.9,0,2.7,1.2,2.7,2.9v0.4h-3.8c0.1,1,0.4,1.4,1.2,1.4
			c0.7,0,0.9-0.3,1-0.7h1.6C193.5,490.4,192.5,491,191,491z M192,487.5c-0.1-0.8-0.4-1.3-1-1.3c-0.7,0-1,0.5-1.1,1.3L192,487.5
			L192,487.5z"/>
		<path class="st37" d="M200.2,490.9h-1.6v-0.8h0c-0.3,0.5-0.8,1-1.7,1c-1.5,0-2.4-0.9-2.4-2.9c0-2,1.1-3,2.4-3
			c0.7,0,1.3,0.3,1.5,0.9h0v-3.4h1.7V490.9z M198.6,487.8c0-1-0.4-1.5-1.1-1.5c-0.7,0-1.2,0.6-1.2,1.8c0,1.1,0.3,1.8,1.2,1.8
			c0.8,0,1.2-0.6,1.2-1.4V487.8z"/>
	</g>
	<g>
		<circle class="st38" cx="175.5" cy="464.8" r="12"/>
		<polyline class="st39" points="169.3,465.5 173,469.1 181.7,460.4 		"/>
	</g>
</g>
</svg>
