<svg width="16" height="16" viewBox="0 0 14 15" fill="none" xmlns="http://www.w3.org/2000/svg"><path fill-rule="evenodd" clip-rule="evenodd" d="M7.39253 0.912591C7.16142 0.732831 6.8378 0.732831 6.60668 0.912591L0.846685 5.39259C0.690792 5.51384 0.599609 5.70028 0.599609 5.89777V12.9378C0.599609 13.9981 1.45922 14.8578 2.51961 14.8578H11.4796C12.54 14.8578 13.3996 13.9981 13.3996 12.9378V5.89777C13.3996 5.70028 13.3084 5.51384 13.1525 5.39259L7.39253 0.912591ZM9.55962 13.5778H11.4796C11.833 13.5778 12.1196 13.2912 12.1196 12.9378V6.21079L6.99961 2.22856L1.87961 6.21079V12.9378C1.87961 13.2912 2.16614 13.5778 2.51961 13.5778H4.43961V7.81777C4.43961 7.46431 4.72614 7.17777 5.07961 7.17777H8.91962C9.27304 7.17777 9.55962 7.46431 9.55962 7.81777V13.5778ZM5.71961 13.5778V8.45777H8.27962V13.5778H5.71961Z" fill="#FFF" stroke="#FFF" stroke-width="0"></path></svg>