<svg width="24" height="24" viewBox="0 0 24 24" fill="none" xmlns="http://www.w3.org/2000/svg"><path d="M12 24c6.627 0 12-5.373 12-12S18.627 0 12 0 0 5.373 0 12s5.373 12 12 12Z" fill="#E77A2B"/><path fill-rule="evenodd" clip-rule="evenodd" d="M15.845 6.681H8.157a.298.298 0 0 0-.297.298V18.07c0 .165.133.298.297.298h7.688a.298.298 0 0 0 .298-.298V6.98a.298.298 0 0 0-.298-.298Zm-7.688-.793a1.09 1.09 0 0 0-1.09 1.09V18.07a1.09 1.09 0 0 0 1.09 1.091h7.688a1.09 1.09 0 0 0 1.091-1.09V6.978a1.09 1.09 0 0 0-1.09-1.091h-7.69Z" fill="#fff" stroke="#fff" stroke-width=".539"/><path d="M9.004 10.874c0-.207.19-.375.425-.375h5.15c.235 0 .425.168.425.375s-.19.375-.425.375h-5.15c-.235 0-.425-.168-.425-.375Zm0 2.25c0-.207.19-.375.425-.375h5.15c.235 0 .425.168.425.375s-.19.375-.425.375h-5.15c-.235 0-.425-.168-.425-.375Zm0 2.25c0-.207.19-.375.425-.375h5.15c.235 0 .425.168.425.375 0 .208-.19.375-.425.375h-5.15c-.235 0-.425-.167-.425-.375Z" fill="#fff" stroke="#fff" stroke-width=".539"/><circle cx="12.002" cy="6.325" r="1.487" fill="#2A86F3" stroke="#fff" stroke-width="1.618"/></svg>
