<svg width="16" height="16" viewBox="0 0 16 12" fill="none" xmlns="http://www.w3.org/2000/svg"><path fill-rule="evenodd" clip-rule="evenodd" d="M6.14316 2.96699C6.14316 3.56757 5.6563 4.05443 5.05572 4.05443C4.45515 4.05443 3.96828 3.56757 3.96828 2.96699C3.96828 2.36642 4.45515 1.87955 5.05572 1.87955C5.6563 1.87955 6.14316 2.36642 6.14316 2.96699ZM7.2306 2.96699C7.2306 4.16815 6.25687 5.14188 5.05572 5.14188C3.85457 5.14188 2.88084 4.16815 2.88084 2.96699C2.88084 1.76585 3.85457 0.792114 5.05572 0.792114C6.25687 0.792114 7.2306 1.76585 7.2306 2.96699ZM11.9831 2.96699C11.9831 3.56757 11.4963 4.05443 10.8956 4.05443C10.2951 4.05443 9.80817 3.56757 9.80817 2.96699C9.80817 2.36642 10.2951 1.87955 10.8956 1.87955C11.4963 1.87955 11.9831 2.36642 11.9831 2.96699ZM13.0706 2.96699C13.0706 4.16815 12.0968 5.14188 10.8956 5.14188C9.69448 5.14188 8.72077 4.16815 8.72077 2.96699C8.72077 1.76585 9.69448 0.792114 10.8956 0.792114C12.0968 0.792114 13.0706 1.76585 13.0706 2.96699ZM5.05572 7.55833C3.14277 7.55833 1.59203 9.10908 1.59203 11.0221C1.59203 11.4002 1.28548 11.7067 0.907341 11.7067C0.529199 11.7067 0.222656 11.4002 0.222656 11.0221C0.222656 8.35282 2.3865 6.18899 5.05572 6.18899C6.15283 6.18899 7.16454 6.55451 7.97573 7.17051C8.53686 6.74455 9.19466 6.43788 9.91101 6.28953C10.2295 6.22348 10.5589 6.18899 10.8956 6.18899C13.5649 6.18899 15.7287 8.35282 15.7287 11.0221C15.7287 11.4002 15.4222 11.7067 15.0441 11.7067C14.6659 11.7067 14.3594 11.4002 14.3594 11.0221C14.3594 9.10908 12.8086 7.55833 10.8956 7.55833C10.6528 7.55833 10.4164 7.58322 10.1888 7.63042C9.73732 7.72393 9.31759 7.90553 8.94843 8.15699C9.53946 8.95877 9.88879 9.94962 9.88879 11.0221C9.88879 11.4002 9.58221 11.7067 9.20408 11.7067C8.82596 11.7067 8.51942 11.4002 8.51942 11.0221C8.51942 9.10908 6.96867 7.55833 5.05572 7.55833Z" fill="#FFF" stroke-width="0.2"></path></svg>