<svg width="16" height="16" viewBox="0 0 14 11" fill="none" xmlns="http://www.w3.org/2000/svg"><path fill-rule="evenodd" clip-rule="evenodd" d="M12.333 0.333344H1.66634C0.926341 0.333344 0.339675 0.926677 0.339675 1.66668L0.333008 9.66668C0.333008 10.4067 0.926341 11 1.66634 11H12.333C13.073 11 13.6663 10.4067 13.6663 9.66668V1.66668C13.6663 0.926677 13.073 0.333344 12.333 0.333344ZM12.333 9.66668H1.66634V5.66668H12.333V9.66668ZM12.333 4.33334H1.66634V1.66668H12.333V4.33334ZM11.8886 7.44445C11.8886 7.93539 11.4906 8.33334 10.9997 8.33334C10.5087 8.33334 10.1108 7.93539 10.1108 7.44445C10.1108 6.95352 10.5087 6.55557 10.9997 6.55557C11.4906 6.55557 11.8886 6.95352 11.8886 7.44445ZM10.1108 7.44445C10.1108 6.95352 9.71283 6.55557 9.2219 6.55557C8.73096 6.55557 8.33301 6.95352 8.33301 7.44445C8.33301 7.93539 8.73096 8.33334 9.2219 8.33334C9.71283 8.33334 10.1108 7.93539 10.1108 7.44445Z" fill="#FFF"></path></svg>