<svg width="24" height="24" viewBox="0 0 24 24" fill="none" xmlns="http://www.w3.org/2000/svg"><path d="M12 24c6.627 0 12-5.373 12-12S18.627 0 12 0 0 5.373 0 12s5.373 12 12 12Z" fill="#E77A2B"/><path fill-rule="evenodd" clip-rule="evenodd" d="M10.01 17.966a.469.469 0 0 1 0-.663l6.49-6.49h-2.844a.468.468 0 0 1-.434-.649.47.47 0 0 1 .434-.29h3.978a.47.47 0 0 1 .47.47v3.978a.469.469 0 1 1-.94 0l.001-2.848-6.492 6.492a.469.469 0 0 1-.663 0ZM6.364 9.21a.469.469 0 0 1 .47.47l-.001 2.847 6.494-6.494a.469.469 0 1 1 .663.663l-6.493 6.492h2.844a.47.47 0 1 1 0 .938H6.364a.47.47 0 0 1-.47-.469V9.68a.469.469 0 0 1 .47-.47Z" fill="#fff"/><path d="M9.873 17.635h.25-.25Zm6.627-6.822.177.177a.25.25 0 0 0-.177-.427v.25Zm-2.844 0v-.25.25Zm-.18-.035.096-.231-.095.231Zm-.254-.254.232-.096-.232.096Zm-.035-.18h.25-.25Zm.036-.18.23.096-.23-.095Zm.254-.254.095.232-.095-.232Zm.18-.035-.001.25v-.25Zm3.977 0v.25-.25Zm.47.47-.25-.001h.25Zm0 3.977h.25-.25Zm-.47.47v.25-.25Zm-.47-.47h-.25.25Zm.001-2.848h.25a.25.25 0 0 0-.427-.177l.177.177Zm-6.824 6.63v-.25.25ZM6.543 9.245l-.095.231.095-.231Zm-.18-.036v.25h.001v-.25Zm.435.29-.231.096.23-.096Zm.035.18h-.25.25Zm0 2.847h-.25a.25.25 0 0 0 .426.177l-.176-.177Zm6.826-6.632v.25-.25Zm.468.47h-.25.25Zm-.137.33-.177-.176.177.177Zm-6.493 6.493-.176-.176a.25.25 0 0 0 .176.426v-.25Zm2.844 0v-.25.25Zm.18.036-.096.23.096-.23Zm.152.101-.177.177.177-.177Zm.102.153-.231.095.23-.095Zm0 .359-.231-.096.23.096Zm-.102.152-.177-.177.177.177Zm-.152.102-.096-.231.096.23Zm-.18.036v-.25.25Zm-3.977 0v-.25.25Zm-.18-.036.096-.231-.096.231Zm-.254-.254-.231.095.231-.095Zm-.036-.18h.25-.25Zm0-3.977h.25-.25Zm.036-.18-.231-.096.231.096Zm.254-.254-.095-.231.095.23Zm3.439 8.389c0 .19.075.373.21.508l.354-.354a.219.219 0 0 1-.064-.154h-.5Zm.21-.509a.719.719 0 0 0-.21.509h.5a.22.22 0 0 1 .064-.155l-.354-.354Zm6.49-6.49-6.49 6.49.354.354 6.49-6.49-.354-.354Zm-2.667.428 2.844-.001v-.5h-2.844v.5Zm-.275-.055a.717.717 0 0 0 .276.055l-.001-.5a.22.22 0 0 1-.084-.017l-.19.462Zm-.233-.156c.066.067.146.12.233.156l.191-.462a.219.219 0 0 1-.071-.048l-.353.354Zm-.156-.233a.73.73 0 0 0 .155.233l.354-.354a.22.22 0 0 1-.047-.07l-.463.19Zm-.055-.276a.72.72 0 0 0 .055.276l.461-.192a.22.22 0 0 1-.016-.083l-.5-.001Zm.055-.275a.72.72 0 0 0-.055.276l.5-.001a.22.22 0 0 1 .017-.084l-.463-.191Zm.155-.234a.718.718 0 0 0-.155.234l.461.191a.22.22 0 0 1 .048-.071l-.353-.354Zm.234-.156a.718.718 0 0 0-.233.156l.353.354a.219.219 0 0 1 .071-.047l-.19-.463Zm.276-.054a.718.718 0 0 0-.276.054l.191.463a.22.22 0 0 1 .084-.017v-.5Zm3.977 0h-3.978v.5h3.978v-.5Zm.275.054a.719.719 0 0 0-.276-.054l.001.5a.22.22 0 0 1 .084.017l.191-.463Zm.234.156a.719.719 0 0 0-.234-.156l-.191.463a.22.22 0 0 1 .071.047l.354-.354Zm.156.234a.721.721 0 0 0-.156-.234l-.354.354a.2.2 0 0 1 .047.071l.463-.191Zm.054.276a.72.72 0 0 0-.054-.276l-.462.191a.22.22 0 0 1 .016.084h.5Zm0 3.977v-3.978h-.5v3.978h.5Zm-.21.508a.72.72 0 0 0 .21-.508h-.5a.22.22 0 0 1-.064.155l.353.353Zm-.51.211a.72.72 0 0 0 .51-.21l-.354-.354a.22.22 0 0 1-.155.064v.5Zm-.508-.21a.72.72 0 0 0 .509.21v-.5a.22.22 0 0 1-.155-.064l-.354.353Zm-.21-.51c0 .191.075.374.21.51l.354-.354a.219.219 0 0 1-.065-.155h-.5Zm0-2.847v2.848h.5v-2.848h-.5Zm-6.065 6.669 6.492-6.492-.354-.354-6.492 6.492.354.354Zm-.509.21a.72.72 0 0 0 .509-.21l-.354-.354a.218.218 0 0 1-.155.064v.5Zm-.508-.21c.135.135.318.21.508.21v-.5a.219.219 0 0 1-.154-.064l-.354.354ZM6.639 9.015a.719.719 0 0 0-.276-.055l.001.5c.029 0 .057.006.084.017l.191-.462Zm.234.156a.719.719 0 0 0-.234-.156l-.191.462c.027.011.05.027.071.047l.354-.353Zm.156.233a.719.719 0 0 0-.156-.233l-.354.353c.02.02.037.045.048.072l.462-.192Zm.054.276a.719.719 0 0 0-.054-.276l-.462.192a.219.219 0 0 1 .016.083l.5.001Zm0 2.847V9.68h-.5v2.847h.5Zm-.074.177 6.495-6.495-.354-.353-6.494 6.495.353.353Zm6.495-6.495a.219.219 0 0 1 .155-.064v-.5a.719.719 0 0 0-.509.21l.354.354Zm.155-.064c.058 0 .113.023.154.064l.354-.353a.719.719 0 0 0-.508-.21v.5Zm.154.064a.218.218 0 0 1 .064.155h.5a.719.719 0 0 0-.21-.508l-.354.353Zm.064.155a.218.218 0 0 1-.064.155l.354.353a.719.719 0 0 0 .21-.508h-.5Zm-.064.155-6.492 6.493.353.353 6.493-6.493-.354-.353Zm-3.472 6.419H7.497v.5h2.844v-.5Zm.276.055a.72.72 0 0 0-.276-.055v.5a.22.22 0 0 1 .084.016l.191-.461Zm.233.155a.72.72 0 0 0-.233-.155l-.192.461a.22.22 0 0 1 .071.048l.354-.354Zm.156.234a.718.718 0 0 0-.156-.233l-.354.353c.02.02.037.045.048.071l.462-.191Zm.055.275a.719.719 0 0 0-.055-.275l-.462.191a.22.22 0 0 1 .017.084h.5Zm-.055.275a.719.719 0 0 0 .055-.275h-.5a.22.22 0 0 1-.017.084l.462.191Zm-.156.234a.717.717 0 0 0 .156-.234l-.462-.19a.22.22 0 0 1-.048.07l.354.354Zm-.233.156a.72.72 0 0 0 .233-.156l-.354-.354a.217.217 0 0 1-.07.048l.19.462Zm-.276.055a.72.72 0 0 0 .276-.055l-.192-.462a.218.218 0 0 1-.084.017v.5Zm-3.977 0h3.977v-.5H6.364v.5Zm-.275-.055a.718.718 0 0 0 .275.055v-.5a.217.217 0 0 1-.084-.017l-.191.462Zm-.234-.156c.067.067.146.12.234.156l.19-.462a.22.22 0 0 1-.07-.047l-.354.353Zm-.156-.234c.036.088.09.167.156.234l.353-.354a.22.22 0 0 1-.047-.07l-.462.19Zm-.055-.275c0 .094.019.188.055.275l.462-.19a.219.219 0 0 1-.017-.085h-.5Zm0-3.977v3.977h.5V9.68h-.5Zm.055-.276a.719.719 0 0 0-.055.276h.5c0-.03.006-.058.017-.084l-.462-.192Zm.156-.233a.719.719 0 0 0-.156.233l.462.192a.219.219 0 0 1 .048-.072l-.354-.353Zm.234-.156a.719.719 0 0 0-.234.156l.353.353a.219.219 0 0 1 .072-.047l-.191-.462Zm.275-.055a.719.719 0 0 0-.275.055l.19.462a.219.219 0 0 1 .084-.017l.001-.5Z" fill="#fff"/></svg>
