<svg width="24" height="24" viewBox="0 0 24 24" fill="none" xmlns="http://www.w3.org/2000/svg"><path fill-rule="evenodd" clip-rule="evenodd" d="M12 0C5.371 0 0 5.371 0 12s5.371 12 12 12 12-5.371 12-12S18.629 0 12 0Z" fill="#E77A2B"/><path fill-rule="evenodd" clip-rule="evenodd" d="M8.772 7.03h7.874v6.523H8.772V7.03Zm-1.223 0c0-.676.547-1.223 1.223-1.223h7.874c.676 0 1.223.547 1.223 1.223v6.523c0 .676-.547 1.223-1.223 1.223H8.772a1.223 1.223 0 0 1-1.223-1.223v-.815h-.687v4.077h5.58v-2.039h1.224v2.04c0 .675-.548 1.222-1.223 1.222H6.862a1.223 1.223 0 0 1-1.223-1.223v-4.077c0-.676.547-1.223 1.223-1.223h.687V7.03Z" fill="#fff"/><path fill-rule="evenodd" clip-rule="evenodd" d="M14.584 12.498a.983.983 0 0 1-.612.213 1 1 0 0 1-.995-1.006 1 1 0 0 1 .995-1.006c.23 0 .443.08.612.213a.984.984 0 0 1 .611-.213 1 1 0 0 1 .995 1.006 1 1 0 0 1-.995 1.006.983.983 0 0 1-.611-.213Z" fill="#fff"/></svg>
