<svg width="24" height="24" viewBox="0 0 24 24" fill="none" xmlns="http://www.w3.org/2000/svg"><path d="M12 24c6.627 0 12-5.373 12-12S18.627 0 12 0 0 5.373 0 12s5.373 12 12 12Z" fill="#E77A2B"/><path fill-rule="evenodd" clip-rule="evenodd" d="M13.4 9.636H7.293v4.366H13.4V9.636ZM7.293 8.34C6.58 8.34 6 8.92 6 9.636v4.366c0 .715.58 1.295 1.294 1.295H13.4c.714 0 1.294-.58 1.294-1.295V9.636c0-.715-.58-1.295-1.295-1.295H7.294Z" fill="#fff"/><path d="M11.61 12.688c0 .48-.38.87-.848.87a.86.86 0 0 1-.848-.87c0-.48.38-.869.848-.869a.86.86 0 0 1 .848.87Z" fill="#fff"/><path d="M12.653 12.689c0 .48-.38.869-.848.869a.859.859 0 0 1-.849-.87c0-.48.38-.869.849-.869a.86.86 0 0 1 .848.87Z" fill="#fff"/><path fill-rule="evenodd" clip-rule="evenodd" d="M14.492 9.557c.003.037.005.075.005.113v1.065h.532c.44 0 .795-.285.795-.636 0-.352-.355-.636-.795-.636h-.549c.005.03.01.062.012.094Z" fill="#fff"/><path fill-rule="evenodd" clip-rule="evenodd" d="M17.298 15.384a.325.325 0 0 1-.068.008h-1.411a.328.328 0 0 0-.002 0h1.41a.324.324 0 0 0 .07-.008Zm-1.569 2.35 1.86-1.892V6.974a.931.931 0 0 0-.942-.92H7.548h9.1a.93.93 0 0 1 .941.92v8.867l-1.86 1.893h-.001Zm-8.18-9.327h.187V6.243h8.91c.42 0 .753.332.753.731v7.644a.507.507 0 0 0-.171-.03h-1.412a1.12 1.12 0 0 0-1.131 1.11v1.847H8.488a.744.744 0 0 1-.752-.733v-1.621h-.19v.095h-.284c-.118 0-.232-.016-.34-.046v1.572c0 .847.702 1.537 1.568 1.537h7.506-7.508c-.866 0-1.569-.69-1.569-1.537V15.14a1.24 1.24 0 0 1-.189-.073v1.746c0 .956.791 1.726 1.758 1.726h7.587l.148-.15 2.04-2.076.142-.145V6.974c0-.956-.791-1.724-1.759-1.724H6.73v3.282c.06-.03.124-.054.19-.073v-3.02h.001v3.109a1.28 1.28 0 0 1 .34-.046h.288v-.095Zm7.393 9.327h.002a.302.302 0 0 1-.068-.191v-1.845a.925.925 0 0 0-.002 0v1.847c0 .072.026.137.068.19Zm2.286-2.153c.06 0 .117-.01.17-.03v.213l-1.707 1.738V15.7c0-.062.05-.118.126-.118h1.41Z" fill="#fff"/></svg>
