<svg class="svg-icon" style="width: 1em;height: 1em;vertical-align: middle;fill: currentColor;overflow: hidden;" viewBox="0 0 1024 1024" version="1.1" xmlns="http://www.w3.org/2000/svg"><path d="M762.733714 243.809524h45.348572c24.966095 0 45.251048 20.138667 45.251047 45.007238v495.128381c0 24.868571-20.284952 45.007238-45.299809 45.007238H264.777143A45.153524 45.153524 0 0 1 219.428571 783.945143v-89.721905" fill="#E67520" /><path d="M170.666667 146.285714m48.761904 0l536.380953 0q48.761905 0 48.761905 48.761905l0 487.619048q0 48.761905-48.761905 48.761904l-536.380953 0q-48.761905 0-48.761904-48.761904l0-487.619048q0-48.761905 48.761904-48.761905Z" fill="#E67520" /><path d="M170.666667 243.809524h633.904762v487.619047a48.761905 48.761905 0 0 1-48.761905 48.761905H219.428571a48.761905 48.761905 0 0 1-48.761904-48.761905V243.809524z" fill="#ffffff" /><path d="M170.666667 536.380952h487.619047v195.047619a48.761905 48.761905 0 0 1-48.761904 48.761905H219.428571a48.761905 48.761905 0 0 1-48.761904-48.761905v-195.047619z" fill="#EEEEEE" /><path d="M338.895238 462.116571h-34.816v-7.850666a37.156571 37.156571 0 0 0-5.607619-20.675048c-3.803429-5.802667-10.093714-8.679619-18.968381-8.679619a21.942857 21.942857 0 0 0-11.605333 2.730667 22.918095 22.918095 0 0 0-7.168 6.826666 28.867048 28.867048 0 0 0-3.754667 10.093715 65.731048 65.731048 0 0 0-1.024 11.751619l0.24381 8.484571c0.048762 1.26781 0.146286 2.438095 0.292571 3.462095a22.674286 22.674286 0 0 0 2.535619 8.533334 19.017143 19.017143 0 0 0 5.948952 6.485333c2.633143 1.80419 6.241524 3.657143 10.776381 5.461333l26.624 10.581334c7.753143 2.925714 13.994667 6.436571 18.773334 10.386285a45.007238 45.007238 0 0 1 11.264 13.848381c2.486857 5.461333 4.193524 11.702857 5.12 18.578286 0.926476 6.972952 1.365333 14.872381 1.365333 23.747048 0 10.24-1.024 19.748571-3.072 28.525714-2.048 8.777143-5.36381 16.188952-9.898667 22.332952-4.778667 6.339048-11.02019 11.361524-18.773333 15.018667a66.218667 66.218667 0 0 1-28.330667 5.461333c-8.43581 0-16.286476-1.462857-23.552-4.437333a56.027429 56.027429 0 0 1-18.773333-12.288 59.782095 59.782095 0 0 1-12.434286-18.236952A55.442286 55.442286 0 0 1 219.428571 579.535238v-12.970667h34.816v10.922667c0 6.339048 1.852952 12.092952 5.607619 17.261714 3.803429 5.12 10.093714 7.655619 18.968381 7.655619a30.524952 30.524952 0 0 0 13.848381-2.535619 18.383238 18.383238 0 0 0 7.655619-7.363047 26.965333 26.965333 0 0 0 3.267048-11.459048 195.047619 195.047619 0 0 0-0.195048-30.524952 27.014095 27.014095 0 0 0-2.730666-9.898667 19.21219 19.21219 0 0 0-6.339048-6.144 80.944762 80.944762 0 0 0-10.386286-5.12l-24.917333-10.24c-15.018667-6.144-25.063619-14.287238-30.232381-24.380952-5.12-10.142476-7.655619-22.820571-7.655619-38.083048 0-9.118476 1.26781-17.749333 3.754667-25.941333a59.001905 59.001905 0 0 1 11.264-21.162667c4.778667-5.90019 10.873905-10.630095 18.285714-14.140952A60.952381 60.952381 0 0 1 280.868571 390.095238c8.630857 0 16.579048 1.609143 23.747048 4.778667 7.168 3.169524 13.360762 7.41181 18.578286 12.629333 10.48381 10.922667 15.701333 23.405714 15.701333 37.546667v17.066666z m24.380952 173.056V392.143238h51.541334c19.992381 0 35.206095 5.461333 45.543619 16.384 10.386286 10.922667 15.555048 26.38019 15.555047 46.421333v113.664c0 22.77181-5.510095 39.497143-16.579047 50.371048-11.02019 10.776381-26.916571 16.188952-47.591619 16.188952H363.27619z m34.816-210.261333v177.493333h16.042667c9.752381 0 16.725333-2.438095 20.821333-7.314285 4.096-4.87619 6.144-12.580571 6.144-23.064381V454.948571c0-9.557333-1.950476-16.969143-5.851428-22.186666-3.85219-5.217524-10.873905-7.850667-21.113905-7.850667h-16.091428zM507.12381 635.172571V392.143238h34.816v110.933333h0.682666l50.858667-110.933333h34.816l-47.445333 97.28 56.32 145.749333h-36.864l-39.594667-107.861333-18.773333 35.157333v72.704H507.12381z m174.177523-51.541333c7.509333 0 13.653333 2.389333 19.114667 7.850667a26.282667 26.282667 0 0 1 7.850667 19.114666 26.819048 26.819048 0 0 1-7.801905 19.114667 28.038095 28.038095 0 0 1-19.163429 7.509333 25.990095 25.990095 0 0 1-18.773333-7.509333 25.502476 25.502476 0 0 1-7.801905-19.114667c0-7.509333 2.340571-13.994667 7.801905-19.114666a23.79581 23.79581 0 0 1 18.773333-7.850667z" fill="#2D2D2D" /></svg>