<svg width="16" height="16" viewBox="0 0 16 16" fill="none" xmlns="http://www.w3.org/2000/svg" class="Input__StyledIconLeft-sc-1p8iijo-4 cUcfME"><path fill-rule="evenodd" clip-rule="evenodd" d="M7.19999 0C3.22355 0 0 3.22355 0 7.19999C0 11.1764 3.22355 14.4 7.19999 14.4C8.9 14.4 10.4624 13.8108 11.6941 12.8255L14.6343 15.7657C14.9467 16.0781 15.4533 16.0781 15.7657 15.7657C16.0781 15.4533 16.0781 14.9467 15.7657 14.6343L12.8255 11.6941C13.8108 10.4624 14.4 8.9 14.4 7.19999C14.4 3.22355 11.1764 0 7.19999 0ZM11.233 11.0852C12.2033 10.0783 12.8 8.70881 12.8 7.19999C12.8 4.1072 10.2928 1.6 7.19999 1.6C4.1072 1.6 1.6 4.1072 1.6 7.19999C1.6 10.2928 4.1072 12.8 7.19999 12.8C8.70881 12.8 10.0783 12.2033 11.0852 11.233C11.1063 11.2056 11.1293 11.1794 11.1543 11.1543C11.1794 11.1293 11.2056 11.1063 11.233 11.0852Z" fill="#A2AEBE"></path></svg>