<svg width="24" height="24" viewBox="0 0 24 24" fill="none" xmlns="http://www.w3.org/2000/svg"><path d="M12 24c6.627 0 12-5.373 12-12S18.627 0 12 0 0 5.373 0 12s5.373 12 12 12Z" fill="#E77A2B"/><path fill-rule="evenodd" clip-rule="evenodd" d="m11.713 13.418-1.056-1.056a.574.574 0 0 1 0-.807.576.576 0 0 1 .807 0l.59.59 1.488-1.487a.573.573 0 0 1 .806 0 .573.573 0 0 1 0 .806l-1.953 1.954a.484.484 0 0 1-.682 0Z" fill="#fff"/><path fill-rule="evenodd" clip-rule="evenodd" d="M12.37 18.555a.683.683 0 0 1-.216-.038c-5.539-1.92-5.452-6.442-5.39-9.744.005-.346.014-.677.014-.994 0-.36.293-.652.653-.652 1.9 0 3.283-.519 4.483-1.69a.649.649 0 0 1 .912 0c1.2 1.166 2.583 1.69 4.483 1.69.36 0 .653.292.653.652 0 .317.005.644.015.994.062 3.302.148 7.824-5.39 9.744a.571.571 0 0 1-.217.038ZM8.08 8.423l-.006.384c-.062 3.172-.13 6.758 4.296 8.404 4.426-1.646 4.359-5.236 4.296-8.404l-.005-.384c-1.704-.106-3.09-.63-4.29-1.628-1.2.994-2.588 1.522-4.292 1.628Z" fill="#fff"/></svg>
