<svg width="553" height="315" fill="none" xmlns="http://www.w3.org/2000/svg"><g filter="url(#a)"><rect x="110" y="92" width="166" height="181" rx="8" fill="url(#b)"/></g><path d="M406.11 18.068a3.35 3.35 0 1 0-6.7 0 3.351 3.351 0 1 0 6.7 0Zm-12.45 0a3.351 3.351 0 1 0-3.35 3.352c1.85 0 3.35-1.5 3.35-3.352Zm12.45-14.365a3.35 3.35 0 1 0-6.7 0 3.351 3.351 0 1 0 6.7 0Zm-14.365 0a3.351 3.351 0 1 0-3.35 3.352c1.85 0 3.35-1.501 3.35-3.352Zm28.731 14.365a3.351 3.351 0 1 0-3.35 3.352c1.85 0 3.35-1.5 3.35-3.352Zm0-14.365a3.351 3.351 0 1 0-3.35 3.352c1.85 0 3.35-1.501 3.35-3.352Zm14.366 14.365a3.351 3.351 0 1 0-3.35 3.352c1.85 0 3.35-1.5 3.35-3.352Zm0-14.365a3.351 3.351 0 1 0-3.35 3.352c1.85 0 3.35-1.501 3.35-3.352Zm13.408 14.365a3.351 3.351 0 1 0-3.35 3.352c1.85 0 3.35-1.5 3.35-3.352Zm0-14.365a3.351 3.351 0 1 0-3.35 3.352c1.85 0 3.35-1.501 3.35-3.352Zm14.365 0a3.35 3.35 0 1 0-6.7 0 3.351 3.351 0 1 0 6.7 0Zm14.366 0a3.351 3.351 0 1 0-3.35 3.352c1.85 0 3.35-1.501 3.35-3.352ZM406.11 45.844a3.35 3.35 0 1 0-6.699-.001 3.35 3.35 0 0 0 6.699.001Zm0 14.366a3.35 3.35 0 1 0-6.699-.001 3.35 3.35 0 0 0 6.699 0Zm-12.45-14.366a3.35 3.35 0 1 0-6.7 0 3.35 3.35 0 0 0 6.7 0Zm12.45-14.366a3.35 3.35 0 1 0-6.699 0 3.35 3.35 0 0 0 6.699 0Zm14.366 14.366a3.35 3.35 0 1 0-6.7 0 3.35 3.35 0 0 0 6.7 0Zm0 14.366a3.35 3.35 0 1 0-6.7 0 3.35 3.35 0 0 0 6.7 0Zm0-28.732a3.35 3.35 0 1 0-6.7 0 3.35 3.35 0 0 0 6.7 0Zm14.366 14.366a3.35 3.35 0 1 0-6.7 0 3.35 3.35 0 0 0 6.7 0Zm0 14.366a3.35 3.35 0 1 0-6.7 0 3.35 3.35 0 0 0 6.7 0Zm0-28.732a3.35 3.35 0 1 0-6.7 0 3.35 3.35 0 0 0 6.7 0Zm13.408 14.366a3.35 3.35 0 1 0-6.7 0 3.35 3.35 0 0 0 6.7 0Zm0-14.366a3.35 3.35 0 1 0-6.7 0 3.35 3.35 0 0 0 6.7 0Zm14.365 0a3.35 3.35 0 1 0-6.699 0 3.35 3.35 0 0 0 6.699 0Zm14.366 0a3.35 3.35 0 1 0-6.7 0 3.35 3.35 0 0 0 6.7 0ZM88.15 311.13a3.35 3.35 0 1 0-6.7 0 3.35 3.35 0 0 0 6.7 0Zm-12.45 0a3.35 3.35 0 1 0-6.7 0 3.35 3.35 0 0 0 6.7 0Zm12.454-13.41a3.352 3.352 0 1 0-6.704 0 3.352 3.352 0 0 0 6.704 0Zm14.362 13.41a3.35 3.35 0 1 0-6.7 0 3.35 3.35 0 0 0 6.7 0Zm.004-13.41a3.352 3.352 0 1 0-6.705 0 3.352 3.352 0 0 0 6.705 0Zm14.362 13.41a3.35 3.35 0 1 0-6.7 0 3.35 3.35 0 0 0 6.7 0Zm.004-13.41a3.352 3.352 0 1 0-6.705 0 3.352 3.352 0 0 0 6.705 0Zm14.361 13.41a3.35 3.35 0 1 0-6.7 0 3.35 3.35 0 0 0 6.7 0Zm0-13.41c0-1.851-1.5-3.352-3.35-3.352a3.351 3.351 0 0 0 0 6.704c1.85 0 3.35-1.501 3.35-3.352Zm13.412 0a3.352 3.352 0 1 0-6.705 0 3.352 3.352 0 0 0 6.705 0Zm14.366 0a3.352 3.352 0 1 0-6.705 0 3.352 3.352 0 0 0 6.705 0Z" fill="#BFDCFF"/><g filter="url(#c)"><rect x="422" y="242" width="17" height="17" rx="3" fill="url(#d)"/></g><g filter="url(#e)"><rect x="434" y="192" width="34" height="34" rx="4" fill="url(#f)"/></g><rect x="545" y="84" width="8" height="8" rx="2" fill="#DAEBFF"/><rect x="69" y="155" width="14" height="14" rx="2" fill="#DAEBFF"/><rect y="233" width="8" height="8" rx="1" fill="#DAEBFF"/><defs><linearGradient id="b" x1="110" y1="78.259" x2="210.642" y2="308.808" gradientUnits="userSpaceOnUse"><stop stop-color="#0DB6FF"/><stop offset=".953" stop-color="#16DD7E"/></linearGradient><linearGradient id="d" x1="422" y1="231.139" x2="452.965" y2="274.796" gradientUnits="userSpaceOnUse"><stop stop-color="#16DD7E"/><stop offset="1" stop-color="#0DB6FF"/></linearGradient><linearGradient id="f" x1="434" y1="170.278" x2="495.931" y2="257.592" gradientUnits="userSpaceOnUse"><stop stop-color="#16DD7E"/><stop offset="1" stop-color="#0DB6FF"/></linearGradient><filter id="a" x="90" y="72" width="206" height="221" filterUnits="userSpaceOnUse" color-interpolation-filters="sRGB"><feFlood flood-opacity="0" result="BackgroundImageFix"/><feColorMatrix in="SourceAlpha" values="0 0 0 0 0 0 0 0 0 0 0 0 0 0 0 0 0 0 127 0" result="hardAlpha"/><feOffset/><feGaussianBlur stdDeviation="10"/><feComposite in2="hardAlpha" operator="out"/><feColorMatrix values="0 0 0 0 0 0 0 0 0 0 0 0 0 0 0 0 0 0 0.25 0"/><feBlend in2="BackgroundImageFix" result="effect1_dropShadow_686:33915"/><feBlend in="SourceGraphic" in2="effect1_dropShadow_686:33915" result="shape"/></filter><filter id="c" x="402" y="222" width="57" height="57" filterUnits="userSpaceOnUse" color-interpolation-filters="sRGB"><feFlood flood-opacity="0" result="BackgroundImageFix"/><feColorMatrix in="SourceAlpha" values="0 0 0 0 0 0 0 0 0 0 0 0 0 0 0 0 0 0 127 0" result="hardAlpha"/><feOffset/><feGaussianBlur stdDeviation="10"/><feComposite in2="hardAlpha" operator="out"/><feColorMatrix values="0 0 0 0 0 0 0 0 0 0 0 0 0 0 0 0 0 0 0.15 0"/><feBlend in2="BackgroundImageFix" result="effect1_dropShadow_686:33915"/><feBlend in="SourceGraphic" in2="effect1_dropShadow_686:33915" result="shape"/></filter><filter id="e" x="414" y="172" width="74" height="74" filterUnits="userSpaceOnUse" color-interpolation-filters="sRGB"><feFlood flood-opacity="0" result="BackgroundImageFix"/><feColorMatrix in="SourceAlpha" values="0 0 0 0 0 0 0 0 0 0 0 0 0 0 0 0 0 0 127 0" result="hardAlpha"/><feOffset/><feGaussianBlur stdDeviation="10"/><feComposite in2="hardAlpha" operator="out"/><feColorMatrix values="0 0 0 0 0 0 0 0 0 0 0 0 0 0 0 0 0 0 0.15 0"/><feBlend in2="BackgroundImageFix" result="effect1_dropShadow_686:33915"/><feBlend in="SourceGraphic" in2="effect1_dropShadow_686:33915" result="shape"/></filter></defs></svg>
